{
	"asset":{
		"generator":"Khronos glTF Blender I/O v5.0.21",
		"version":"2.0"
	},
	"scene":0,
	"scenes":[
		{
			"name":"Scene",
			"nodes":[
				0,
				1,
				2
			]
		}
	],
	"nodes":[
		{
			"mesh":0,
			"name":"Mesh_268"
		},
		{
			"mesh":1,
			"name":"Mesh_269"
		},
		{
			"mesh":2,
			"name":"Mesh_271"
		}
	],
	"materials":[
		{
			"name":"STEEL",
			"normalTexture":{
				"index":0
			},
			"occlusionTexture":{
				"index":1
			},
			"pbrMetallicRoughness":{
				"baseColorTexture":{
					"index":2
				},
				"metallicRoughnessTexture":{
					"index":1
				}
			}
		},
		{
			"name":"KERB",
			"pbrMetallicRoughness":{
				"baseColorTexture":{
					"index":3
				}
			}
		},
		{
			"name":"Plaster002",
			"normalTexture":{
				"index":4
			},
			"occlusionTexture":{
				"index":5
			},
			"pbrMetallicRoughness":{
				"baseColorTexture":{
					"index":6
				},
				"metallicRoughnessTexture":{
					"index":5
				}
			}
		}
	],
	"meshes":[
		{
			"name":"Mesh_268",
			"primitives":[
				{
					"attributes":{
						"POSITION":0,
						"NORMAL":1,
						"TEXCOORD_0":2,
						"COLOR_0":3,
						"COLOR_1":4
					},
					"indices":5,
					"material":0
				}
			]
		},
		{
			"name":"Mesh_269",
			"primitives":[
				{
					"attributes":{
						"POSITION":6,
						"NORMAL":7,
						"TEXCOORD_0":8,
						"COLOR_0":9,
						"COLOR_1":10
					},
					"indices":11,
					"material":1
				}
			]
		},
		{
			"name":"Mesh_271",
			"primitives":[
				{
					"attributes":{
						"POSITION":12,
						"NORMAL":13,
						"TEXCOORD_0":14,
						"COLOR_0":15
					},
					"indices":16,
					"material":2
				}
			]
		}
	],
	"textures":[
		{
			"sampler":0,
			"source":0
		},
		{
			"sampler":0,
			"source":1
		},
		{
			"sampler":0,
			"source":2
		},
		{
			"sampler":0,
			"source":3
		},
		{
			"sampler":0,
			"source":4
		},
		{
			"sampler":0,
			"source":5
		},
		{
			"sampler":0,
			"source":6
		}
	],
	"images":[
		{
			"mimeType":"image/jpeg",
			"name":"Image_6",
			"uri":"Image_6.jpg"
		},
		{
			"mimeType":"image/jpeg",
			"name":"Image_5",
			"uri":"Image_5.jpg"
		},
		{
			"mimeType":"image/jpeg",
			"name":"Image_4",
			"uri":"Image_4.jpg"
		},
		{
			"mimeType":"image/png",
			"name":"Image_23",
			"uri":"Image_23.png"
		},
		{
			"mimeType":"image/jpeg",
			"name":"Image_18",
			"uri":"Image_18.jpg"
		},
		{
			"mimeType":"image/jpeg",
			"name":"Image_17",
			"uri":"Image_17.jpg"
		},
		{
			"mimeType":"image/jpeg",
			"name":"Image_16",
			"uri":"Image_16.jpg"
		}
	],
	"accessors":[
		{
			"bufferView":0,
			"componentType":5126,
			"count":1197,
			"max":[
				375.1990051269531,
				16,
				244.4770050048828
			],
			"min":[
				-370.77801513671875,
				9,
				-234.26400756835938
			],
			"type":"VEC3"
		},
		{
			"bufferView":1,
			"componentType":5126,
			"count":1197,
			"type":"VEC3"
		},
		{
			"bufferView":2,
			"componentType":5126,
			"count":1197,
			"type":"VEC2"
		},
		{
			"bufferView":3,
			"componentType":5121,
			"count":1197,
			"normalized":true,
			"type":"VEC4"
		},
		{
			"bufferView":4,
			"componentType":5123,
			"count":1197,
			"normalized":true,
			"type":"VEC4"
		},
		{
			"bufferView":5,
			"componentType":5123,
			"count":1197,
			"type":"SCALAR"
		},
		{
			"bufferView":6,
			"componentType":5126,
			"count":2688,
			"max":[
				375.1990051269531,
				16,
				244.4770050048828
			],
			"min":[
				-370.77801513671875,
				0,
				-234.26400756835938
			],
			"type":"VEC3"
		},
		{
			"bufferView":7,
			"componentType":5126,
			"count":2688,
			"type":"VEC3"
		},
		{
			"bufferView":8,
			"componentType":5126,
			"count":2688,
			"type":"VEC2"
		},
		{
			"bufferView":9,
			"componentType":5121,
			"count":2688,
			"normalized":true,
			"type":"VEC4"
		},
		{
			"bufferView":10,
			"componentType":5123,
			"count":2688,
			"normalized":true,
			"type":"VEC4"
		},
		{
			"bufferView":11,
			"componentType":5123,
			"count":2688,
			"type":"SCALAR"
		},
		{
			"bufferView":12,
			"componentType":5126,
			"count":144,
			"max":[
				130.25900268554688,
				15,
				244.1540069580078
			],
			"min":[
				-141.74099731445312,
				10,
				135.83099365234375
			],
			"type":"VEC3"
		},
		{
			"bufferView":13,
			"componentType":5126,
			"count":144,
			"type":"VEC3"
		},
		{
			"bufferView":14,
			"componentType":5126,
			"count":144,
			"type":"VEC2"
		},
		{
			"bufferView":15,
			"componentType":5126,
			"count":144,
			"type":"VEC3"
		},
		{
			"bufferView":16,
			"componentType":5123,
			"count":144,
			"type":"SCALAR"
		}
	],
	"bufferViews":[
		{
			"buffer":0,
			"byteLength":14364,
			"byteOffset":0,
			"target":34962
		},
		{
			"buffer":0,
			"byteLength":14364,
			"byteOffset":14364,
			"target":34962
		},
		{
			"buffer":0,
			"byteLength":9576,
			"byteOffset":28728,
			"target":34962
		},
		{
			"buffer":0,
			"byteLength":4788,
			"byteOffset":38304,
			"target":34962
		},
		{
			"buffer":0,
			"byteLength":9576,
			"byteOffset":43092,
			"target":34962
		},
		{
			"buffer":0,
			"byteLength":2394,
			"byteOffset":52668,
			"target":34963
		},
		{
			"buffer":0,
			"byteLength":32256,
			"byteOffset":55064,
			"target":34962
		},
		{
			"buffer":0,
			"byteLength":32256,
			"byteOffset":87320,
			"target":34962
		},
		{
			"buffer":0,
			"byteLength":21504,
			"byteOffset":119576,
			"target":34962
		},
		{
			"buffer":0,
			"byteLength":10752,
			"byteOffset":141080,
			"target":34962
		},
		{
			"buffer":0,
			"byteLength":21504,
			"byteOffset":151832,
			"target":34962
		},
		{
			"buffer":0,
			"byteLength":5376,
			"byteOffset":173336,
			"target":34963
		},
		{
			"buffer":0,
			"byteLength":1728,
			"byteOffset":178712,
			"target":34962
		},
		{
			"buffer":0,
			"byteLength":1728,
			"byteOffset":180440,
			"target":34962
		},
		{
			"buffer":0,
			"byteLength":1152,
			"byteOffset":182168,
			"target":34962
		},
		{
			"buffer":0,
			"byteLength":1728,
			"byteOffset":183320,
			"target":34962
		},
		{
			"buffer":0,
			"byteLength":288,
			"byteOffset":185048,
			"target":34963
		}
	],
	"samplers":[
		{
			"magFilter":9729,
			"minFilter":9987
		}
	],
	"buffers":[
		{
			"byteLength":185336,
			"uri":"KPHX.bin"
		}
	]
}
