{
	"asset":{
		"generator":"Khronos glTF Blender I/O v5.0.21",
		"version":"2.0"
	},
	"scene":0,
	"scenes":[
		{
			"name":"Scene",
			"nodes":[
				2
			]
		}
	],
	"nodes":[
		{
			"mesh":0,
			"name":"Mesh_30"
		},
		{
			"mesh":1,
			"name":"Mesh_31"
		},
		{
			"children":[
				0,
				1
			],
			"name":"Building CIAL Terminal-3",
			"scale":[
				1,
				2,
				1
			]
		}
	],
	"materials":[
		{
			"name":"Plaster002",
			"normalTexture":{
				"index":0
			},
			"occlusionTexture":{
				"index":1
			},
			"pbrMetallicRoughness":{
				"baseColorTexture":{
					"index":2
				},
				"metallicRoughnessTexture":{
					"index":1
				}
			}
		},
		{
			"name":"RoofingTiles010",
			"normalTexture":{
				"index":3
			},
			"occlusionTexture":{
				"index":4
			},
			"pbrMetallicRoughness":{
				"baseColorTexture":{
					"index":5
				},
				"metallicRoughnessTexture":{
					"index":4
				}
			}
		}
	],
	"meshes":[
		{
			"name":"Mesh_30",
			"primitives":[
				{
					"attributes":{
						"POSITION":0,
						"NORMAL":1,
						"TEXCOORD_0":2,
						"COLOR_0":3
					},
					"indices":4,
					"material":0
				}
			]
		},
		{
			"name":"Mesh_31",
			"primitives":[
				{
					"attributes":{
						"POSITION":5,
						"NORMAL":6,
						"TEXCOORD_0":7,
						"COLOR_0":8
					},
					"indices":9,
					"material":1
				}
			]
		}
	],
	"textures":[
		{
			"sampler":0,
			"source":0
		},
		{
			"sampler":0,
			"source":1
		},
		{
			"sampler":0,
			"source":2
		},
		{
			"sampler":0,
			"source":3
		},
		{
			"sampler":0,
			"source":4
		},
		{
			"sampler":0,
			"source":5
		}
	],
	"images":[
		{
			"mimeType":"image/jpeg",
			"name":"Image_5",
			"uri":"Image_5.jpg"
		},
		{
			"mimeType":"image/jpeg",
			"name":"Image_4",
			"uri":"Image_4.jpg"
		},
		{
			"mimeType":"image/jpeg",
			"name":"Image_3",
			"uri":"Image_3.jpg"
		},
		{
			"mimeType":"image/jpeg",
			"name":"Image_8",
			"uri":"Image_8.jpg"
		},
		{
			"mimeType":"image/jpeg",
			"name":"Image_7",
			"uri":"Image_7.jpg"
		},
		{
			"mimeType":"image/jpeg",
			"name":"Image_6",
			"uri":"Image_6.jpg"
		}
	],
	"accessors":[
		{
			"bufferView":0,
			"componentType":5126,
			"count":300,
			"max":[
				241.15199279785156,
				7.5,
				131.99099731445312
			],
			"min":[
				-311.4339904785156,
				0,
				-136.5
			],
			"type":"VEC3"
		},
		{
			"bufferView":1,
			"componentType":5126,
			"count":300,
			"type":"VEC3"
		},
		{
			"bufferView":2,
			"componentType":5126,
			"count":300,
			"type":"VEC2"
		},
		{
			"bufferView":3,
			"componentType":5126,
			"count":300,
			"type":"VEC3"
		},
		{
			"bufferView":4,
			"componentType":5123,
			"count":300,
			"type":"SCALAR"
		},
		{
			"bufferView":5,
			"componentType":5126,
			"count":129,
			"max":[
				241.15199279785156,
				7.5,
				131.99099731445312
			],
			"min":[
				-311.4339904785156,
				2.5,
				-136.5
			],
			"type":"VEC3"
		},
		{
			"bufferView":6,
			"componentType":5126,
			"count":129,
			"type":"VEC3"
		},
		{
			"bufferView":7,
			"componentType":5126,
			"count":129,
			"type":"VEC2"
		},
		{
			"bufferView":8,
			"componentType":5126,
			"count":129,
			"type":"VEC3"
		},
		{
			"bufferView":9,
			"componentType":5123,
			"count":129,
			"type":"SCALAR"
		}
	],
	"bufferViews":[
		{
			"buffer":0,
			"byteLength":3600,
			"byteOffset":0,
			"target":34962
		},
		{
			"buffer":0,
			"byteLength":3600,
			"byteOffset":3600,
			"target":34962
		},
		{
			"buffer":0,
			"byteLength":2400,
			"byteOffset":7200,
			"target":34962
		},
		{
			"buffer":0,
			"byteLength":3600,
			"byteOffset":9600,
			"target":34962
		},
		{
			"buffer":0,
			"byteLength":600,
			"byteOffset":13200,
			"target":34963
		},
		{
			"buffer":0,
			"byteLength":1548,
			"byteOffset":13800,
			"target":34962
		},
		{
			"buffer":0,
			"byteLength":1548,
			"byteOffset":15348,
			"target":34962
		},
		{
			"buffer":0,
			"byteLength":1032,
			"byteOffset":16896,
			"target":34962
		},
		{
			"buffer":0,
			"byteLength":1548,
			"byteOffset":17928,
			"target":34962
		},
		{
			"buffer":0,
			"byteLength":258,
			"byteOffset":19476,
			"target":34963
		}
	],
	"samplers":[
		{
			"magFilter":9729,
			"minFilter":9987
		}
	],
	"buffers":[
		{
			"byteLength":19736,
			"uri":"VOCI.bin"
		}
	]
}
