{
	"asset":{
		"generator":"Khronos glTF Blender I/O v5.0.21",
		"version":"2.0"
	},
	"scene":0,
	"scenes":[
		{
			"name":"Scene",
			"nodes":[
				0,
				1,
				2,
				3,
				4,
				5,
				6,
				7,
				8,
				9,
				10,
				11,
				12,
				13
			]
		}
	],
	"nodes":[
		{
			"mesh":0,
			"name":"Mesh_478",
			"scale":[
				1,
				2,
				1
			]
		},
		{
			"mesh":1,
			"name":"Mesh_476",
			"scale":[
				1,
				2,
				1
			]
		},
		{
			"mesh":2,
			"name":"Mesh_477",
			"scale":[
				1,
				2,
				1
			]
		},
		{
			"mesh":3,
			"name":"Mesh_366",
			"scale":[
				1,
				2,
				1
			]
		},
		{
			"mesh":4,
			"name":"Mesh_367",
			"scale":[
				1,
				2,
				1
			]
		},
		{
			"mesh":5,
			"name":"Mesh_368",
			"scale":[
				1,
				2,
				1
			]
		},
		{
			"mesh":6,
			"name":"Mesh_405",
			"scale":[
				1,
				2,
				1
			]
		},
		{
			"mesh":7,
			"name":"Mesh_406",
			"scale":[
				1,
				2,
				1
			]
		},
		{
			"mesh":8,
			"name":"Mesh_407",
			"scale":[
				1,
				2,
				1
			]
		},
		{
			"mesh":9,
			"name":"Mesh_67",
			"scale":[
				1,
				2,
				1
			]
		},
		{
			"mesh":10,
			"name":"Mesh_68",
			"scale":[
				1,
				2,
				1
			]
		},
		{
			"mesh":11,
			"name":"Mesh_69",
			"scale":[
				1,
				2,
				1
			]
		},
		{
			"mesh":12,
			"name":"Mesh_251",
			"scale":[
				1,
				2,
				1
			]
		},
		{
			"mesh":13,
			"name":"Mesh_252",
			"scale":[
				1,
				2,
				1
			]
		}
	],
	"materials":[
		{
			"name":"TERRAIN_DEFAULT",
			"normalTexture":{
				"index":0
			},
			"occlusionTexture":{
				"index":1
			},
			"pbrMetallicRoughness":{
				"baseColorTexture":{
					"index":2
				},
				"metallicRoughnessTexture":{
					"index":1
				}
			}
		},
		{
			"name":"Plaster002",
			"normalTexture":{
				"index":3
			},
			"occlusionTexture":{
				"index":4
			},
			"pbrMetallicRoughness":{
				"baseColorTexture":{
					"index":5
				},
				"metallicRoughnessTexture":{
					"index":4
				}
			}
		}
	],
	"meshes":[
		{
			"name":"Mesh_478",
			"primitives":[
				{
					"attributes":{
						"POSITION":0,
						"NORMAL":1,
						"TEXCOORD_0":2,
						"COLOR_0":3,
						"COLOR_1":4
					},
					"indices":5,
					"material":0
				}
			]
		},
		{
			"name":"Mesh_476",
			"primitives":[
				{
					"attributes":{
						"POSITION":6,
						"NORMAL":7,
						"TEXCOORD_0":8
					},
					"indices":9,
					"material":1
				}
			]
		},
		{
			"name":"Mesh_477",
			"primitives":[
				{
					"attributes":{
						"POSITION":10,
						"NORMAL":11,
						"TEXCOORD_0":12,
						"COLOR_0":13
					},
					"indices":14,
					"material":1
				}
			]
		},
		{
			"name":"Mesh_366",
			"primitives":[
				{
					"attributes":{
						"POSITION":15,
						"NORMAL":16,
						"TEXCOORD_0":17,
						"COLOR_0":18
					},
					"indices":19,
					"material":1
				}
			]
		},
		{
			"name":"Mesh_367",
			"primitives":[
				{
					"attributes":{
						"POSITION":20,
						"NORMAL":21,
						"TEXCOORD_0":22
					},
					"indices":23,
					"material":1
				}
			]
		},
		{
			"name":"Mesh_368",
			"primitives":[
				{
					"attributes":{
						"POSITION":24,
						"NORMAL":25,
						"TEXCOORD_0":26,
						"COLOR_0":27,
						"COLOR_1":28
					},
					"indices":29,
					"material":0
				}
			]
		},
		{
			"name":"Mesh_405",
			"primitives":[
				{
					"attributes":{
						"POSITION":30,
						"NORMAL":31,
						"TEXCOORD_0":32,
						"COLOR_0":33
					},
					"indices":34,
					"material":1
				}
			]
		},
		{
			"name":"Mesh_406",
			"primitives":[
				{
					"attributes":{
						"POSITION":35,
						"NORMAL":36,
						"TEXCOORD_0":37
					},
					"indices":38,
					"material":1
				}
			]
		},
		{
			"name":"Mesh_407",
			"primitives":[
				{
					"attributes":{
						"POSITION":39,
						"NORMAL":40,
						"TEXCOORD_0":41,
						"COLOR_0":42,
						"COLOR_1":43
					},
					"indices":44,
					"material":0
				}
			]
		},
		{
			"name":"Mesh_67",
			"primitives":[
				{
					"attributes":{
						"POSITION":45,
						"NORMAL":46,
						"TEXCOORD_0":47,
						"COLOR_0":48,
						"COLOR_1":49
					},
					"indices":50,
					"material":0
				}
			]
		},
		{
			"name":"Mesh_68",
			"primitives":[
				{
					"attributes":{
						"POSITION":51,
						"NORMAL":52,
						"TEXCOORD_0":53,
						"COLOR_0":54
					},
					"indices":55,
					"material":1
				}
			]
		},
		{
			"name":"Mesh_69",
			"primitives":[
				{
					"attributes":{
						"POSITION":56,
						"NORMAL":57,
						"TEXCOORD_0":58
					},
					"indices":59,
					"material":1
				}
			]
		},
		{
			"name":"Mesh_251",
			"primitives":[
				{
					"attributes":{
						"POSITION":60,
						"NORMAL":61,
						"TEXCOORD_0":62,
						"COLOR_0":63,
						"COLOR_1":64
					},
					"indices":65,
					"material":0
				}
			]
		},
		{
			"name":"Mesh_252",
			"primitives":[
				{
					"attributes":{
						"POSITION":66,
						"NORMAL":67,
						"TEXCOORD_0":68,
						"COLOR_0":69
					},
					"indices":70,
					"material":1
				}
			]
		}
	],
	"textures":[
		{
			"sampler":0,
			"source":0
		},
		{
			"sampler":0,
			"source":1
		},
		{
			"sampler":0,
			"source":2
		},
		{
			"sampler":0,
			"source":3
		},
		{
			"sampler":0,
			"source":4
		},
		{
			"sampler":0,
			"source":5
		}
	],
	"images":[
		{
			"mimeType":"image/jpeg",
			"name":"Image_14",
			"uri":"Image_14.jpg"
		},
		{
			"mimeType":"image/jpeg",
			"name":"Image_13",
			"uri":"Image_13.jpg"
		},
		{
			"mimeType":"image/jpeg",
			"name":"Image_12",
			"uri":"Image_12.jpg"
		},
		{
			"mimeType":"image/jpeg",
			"name":"Image_18",
			"uri":"Image_18.jpg"
		},
		{
			"mimeType":"image/jpeg",
			"name":"Image_17",
			"uri":"Image_17.jpg"
		},
		{
			"mimeType":"image/jpeg",
			"name":"Image_16",
			"uri":"Image_16.jpg"
		}
	],
	"accessors":[
		{
			"bufferView":0,
			"componentType":5126,
			"count":57,
			"max":[
				213.92100524902344,
				7.5,
				213.27499389648438
			],
			"min":[
				-383.70098876953125,
				7.5,
				-316.2510070800781
			],
			"type":"VEC3"
		},
		{
			"bufferView":1,
			"componentType":5126,
			"count":57,
			"type":"VEC3"
		},
		{
			"bufferView":2,
			"componentType":5126,
			"count":57,
			"type":"VEC2"
		},
		{
			"bufferView":3,
			"componentType":5121,
			"count":57,
			"normalized":true,
			"type":"VEC4"
		},
		{
			"bufferView":4,
			"componentType":5123,
			"count":57,
			"normalized":true,
			"type":"VEC4"
		},
		{
			"bufferView":5,
			"componentType":5123,
			"count":57,
			"type":"SCALAR"
		},
		{
			"bufferView":6,
			"componentType":5126,
			"count":14688,
			"max":[
				213.5130157470703,
				6.980478286743164,
				212.86428833007812
			],
			"min":[
				-383.27789306640625,
				0.7695217728614807,
				-315.83599853515625
			],
			"type":"VEC3"
		},
		{
			"bufferView":7,
			"componentType":5126,
			"count":14688,
			"type":"VEC3"
		},
		{
			"bufferView":8,
			"componentType":5126,
			"count":14688,
			"type":"VEC2"
		},
		{
			"bufferView":9,
			"componentType":5123,
			"count":14688,
			"type":"SCALAR"
		},
		{
			"bufferView":10,
			"componentType":5126,
			"count":88812,
			"max":[
				213.92100524902344,
				7.5,
				213.27499389648438
			],
			"min":[
				-383.70098876953125,
				0,
				-316.2510070800781
			],
			"type":"VEC3"
		},
		{
			"bufferView":11,
			"componentType":5126,
			"count":88812,
			"type":"VEC3"
		},
		{
			"bufferView":12,
			"componentType":5126,
			"count":88812,
			"type":"VEC2"
		},
		{
			"bufferView":13,
			"componentType":5126,
			"count":88812,
			"type":"VEC3"
		},
		{
			"bufferView":14,
			"componentType":5125,
			"count":88812,
			"type":"SCALAR"
		},
		{
			"bufferView":15,
			"componentType":5126,
			"count":80058,
			"max":[
				678.7260131835938,
				7.5,
				-289.12200927734375
			],
			"min":[
				201.89300537109375,
				0,
				-700.3070068359375
			],
			"type":"VEC3"
		},
		{
			"bufferView":16,
			"componentType":5126,
			"count":80058,
			"type":"VEC3"
		},
		{
			"bufferView":17,
			"componentType":5126,
			"count":80058,
			"type":"VEC2"
		},
		{
			"bufferView":18,
			"componentType":5126,
			"count":80058,
			"type":"VEC3"
		},
		{
			"bufferView":19,
			"componentType":5125,
			"count":80058,
			"type":"SCALAR"
		},
		{
			"bufferView":20,
			"componentType":5126,
			"count":13086,
			"max":[
				678.2868041992188,
				6.980478286743164,
				-289.53369140625
			],
			"min":[
				202.02561950683594,
				0.7695217728614807,
				-699.9144897460938
			],
			"type":"VEC3"
		},
		{
			"bufferView":21,
			"componentType":5126,
			"count":13086,
			"type":"VEC3"
		},
		{
			"bufferView":22,
			"componentType":5126,
			"count":13086,
			"type":"VEC2"
		},
		{
			"bufferView":23,
			"componentType":5123,
			"count":13086,
			"type":"SCALAR"
		},
		{
			"bufferView":24,
			"componentType":5126,
			"count":171,
			"max":[
				678.7260131835938,
				7.5,
				-289.12200927734375
			],
			"min":[
				201.89300537109375,
				7.5,
				-700.3070068359375
			],
			"type":"VEC3"
		},
		{
			"bufferView":25,
			"componentType":5126,
			"count":171,
			"type":"VEC3"
		},
		{
			"bufferView":26,
			"componentType":5126,
			"count":171,
			"type":"VEC2"
		},
		{
			"bufferView":27,
			"componentType":5121,
			"count":171,
			"normalized":true,
			"type":"VEC4"
		},
		{
			"bufferView":28,
			"componentType":5123,
			"count":171,
			"normalized":true,
			"type":"VEC4"
		},
		{
			"bufferView":29,
			"componentType":5123,
			"count":171,
			"type":"SCALAR"
		},
		{
			"bufferView":30,
			"componentType":5126,
			"count":89826,
			"max":[
				457.1520080566406,
				7.5,
				497.822998046875
			],
			"min":[
				-141.5590057373047,
				0,
				-25.836999893188477
			],
			"type":"VEC3"
		},
		{
			"bufferView":31,
			"componentType":5126,
			"count":89826,
			"type":"VEC3"
		},
		{
			"bufferView":32,
			"componentType":5126,
			"count":89826,
			"type":"VEC2"
		},
		{
			"bufferView":33,
			"componentType":5126,
			"count":89826,
			"type":"VEC3"
		},
		{
			"bufferView":34,
			"componentType":5125,
			"count":89826,
			"type":"SCALAR"
		},
		{
			"bufferView":35,
			"componentType":5126,
			"count":14814,
			"max":[
				456.7291259765625,
				6.980478286743164,
				497.40740966796875
			],
			"min":[
				-141.12521362304688,
				0.7695217728614807,
				-25.4179744720459
			],
			"type":"VEC3"
		},
		{
			"bufferView":36,
			"componentType":5126,
			"count":14814,
			"type":"VEC3"
		},
		{
			"bufferView":37,
			"componentType":5126,
			"count":14814,
			"type":"VEC2"
		},
		{
			"bufferView":38,
			"componentType":5123,
			"count":14814,
			"type":"SCALAR"
		},
		{
			"bufferView":39,
			"componentType":5126,
			"count":96,
			"max":[
				457.1520080566406,
				7.5,
				497.822998046875
			],
			"min":[
				-141.5590057373047,
				7.5,
				-25.836999893188477
			],
			"type":"VEC3"
		},
		{
			"bufferView":40,
			"componentType":5126,
			"count":96,
			"type":"VEC3"
		},
		{
			"bufferView":41,
			"componentType":5126,
			"count":96,
			"type":"VEC2"
		},
		{
			"bufferView":42,
			"componentType":5121,
			"count":96,
			"normalized":true,
			"type":"VEC4"
		},
		{
			"bufferView":43,
			"componentType":5123,
			"count":96,
			"normalized":true,
			"type":"VEC4"
		},
		{
			"bufferView":44,
			"componentType":5123,
			"count":96,
			"type":"SCALAR"
		},
		{
			"bufferView":45,
			"componentType":5126,
			"count":252,
			"max":[
				944.5020141601562,
				7.5,
				-6.756999969482422
			],
			"min":[
				440.0419921875,
				7.5,
				-462.51800537109375
			],
			"type":"VEC3"
		},
		{
			"bufferView":46,
			"componentType":5126,
			"count":252,
			"type":"VEC3"
		},
		{
			"bufferView":47,
			"componentType":5126,
			"count":252,
			"type":"VEC2"
		},
		{
			"bufferView":48,
			"componentType":5121,
			"count":252,
			"normalized":true,
			"type":"VEC4"
		},
		{
			"bufferView":49,
			"componentType":5123,
			"count":252,
			"normalized":true,
			"type":"VEC4"
		},
		{
			"bufferView":50,
			"componentType":5123,
			"count":252,
			"type":"SCALAR"
		},
		{
			"bufferView":51,
			"componentType":5126,
			"count":88752,
			"max":[
				944.5020141601562,
				7.5,
				-6.756999969482422
			],
			"min":[
				440.0419921875,
				0,
				-462.51800537109375
			],
			"type":"VEC3"
		},
		{
			"bufferView":52,
			"componentType":5126,
			"count":88752,
			"type":"VEC3"
		},
		{
			"bufferView":53,
			"componentType":5126,
			"count":88752,
			"type":"VEC2"
		},
		{
			"bufferView":54,
			"componentType":5126,
			"count":88752,
			"type":"VEC3"
		},
		{
			"bufferView":55,
			"componentType":5125,
			"count":88752,
			"type":"SCALAR"
		},
		{
			"bufferView":56,
			"componentType":5126,
			"count":14418,
			"max":[
				944.1088256835938,
				6.980478286743164,
				-6.893148899078369
			],
			"min":[
				440.4984130859375,
				0.7695217728614807,
				-462.1083984375
			],
			"type":"VEC3"
		},
		{
			"bufferView":57,
			"componentType":5126,
			"count":14418,
			"type":"VEC3"
		},
		{
			"bufferView":58,
			"componentType":5126,
			"count":14418,
			"type":"VEC2"
		},
		{
			"bufferView":59,
			"componentType":5123,
			"count":14418,
			"type":"SCALAR"
		},
		{
			"bufferView":60,
			"componentType":5126,
			"count":9,
			"max":[
				-361.177001953125,
				7.5,
				696.1409912109375
			],
			"min":[
				-946.6690063476562,
				7.5,
				187.00399780273438
			],
			"type":"VEC3"
		},
		{
			"bufferView":61,
			"componentType":5126,
			"count":9,
			"type":"VEC3"
		},
		{
			"bufferView":62,
			"componentType":5126,
			"count":9,
			"type":"VEC2"
		},
		{
			"bufferView":63,
			"componentType":5121,
			"count":9,
			"normalized":true,
			"type":"VEC4"
		},
		{
			"bufferView":64,
			"componentType":5123,
			"count":9,
			"normalized":true,
			"type":"VEC4"
		},
		{
			"bufferView":65,
			"componentType":5123,
			"count":9,
			"type":"SCALAR"
		},
		{
			"bufferView":66,
			"componentType":5126,
			"count":30,
			"max":[
				-361.177001953125,
				7.5,
				696.1409912109375
			],
			"min":[
				-946.6690063476562,
				0,
				187.00399780273438
			],
			"type":"VEC3"
		},
		{
			"bufferView":67,
			"componentType":5126,
			"count":30,
			"type":"VEC3"
		},
		{
			"bufferView":68,
			"componentType":5126,
			"count":30,
			"type":"VEC2"
		},
		{
			"bufferView":69,
			"componentType":5126,
			"count":30,
			"type":"VEC3"
		},
		{
			"bufferView":70,
			"componentType":5123,
			"count":30,
			"type":"SCALAR"
		}
	],
	"bufferViews":[
		{
			"buffer":0,
			"byteLength":684,
			"byteOffset":0,
			"target":34962
		},
		{
			"buffer":0,
			"byteLength":684,
			"byteOffset":684,
			"target":34962
		},
		{
			"buffer":0,
			"byteLength":456,
			"byteOffset":1368,
			"target":34962
		},
		{
			"buffer":0,
			"byteLength":228,
			"byteOffset":1824,
			"target":34962
		},
		{
			"buffer":0,
			"byteLength":456,
			"byteOffset":2052,
			"target":34962
		},
		{
			"buffer":0,
			"byteLength":114,
			"byteOffset":2508,
			"target":34963
		},
		{
			"buffer":0,
			"byteLength":176256,
			"byteOffset":2624,
			"target":34962
		},
		{
			"buffer":0,
			"byteLength":176256,
			"byteOffset":178880,
			"target":34962
		},
		{
			"buffer":0,
			"byteLength":117504,
			"byteOffset":355136,
			"target":34962
		},
		{
			"buffer":0,
			"byteLength":29376,
			"byteOffset":472640,
			"target":34963
		},
		{
			"buffer":0,
			"byteLength":1065744,
			"byteOffset":502016,
			"target":34962
		},
		{
			"buffer":0,
			"byteLength":1065744,
			"byteOffset":1567760,
			"target":34962
		},
		{
			"buffer":0,
			"byteLength":710496,
			"byteOffset":2633504,
			"target":34962
		},
		{
			"buffer":0,
			"byteLength":1065744,
			"byteOffset":3344000,
			"target":34962
		},
		{
			"buffer":0,
			"byteLength":355248,
			"byteOffset":4409744,
			"target":34963
		},
		{
			"buffer":0,
			"byteLength":960696,
			"byteOffset":4764992,
			"target":34962
		},
		{
			"buffer":0,
			"byteLength":960696,
			"byteOffset":5725688,
			"target":34962
		},
		{
			"buffer":0,
			"byteLength":640464,
			"byteOffset":6686384,
			"target":34962
		},
		{
			"buffer":0,
			"byteLength":960696,
			"byteOffset":7326848,
			"target":34962
		},
		{
			"buffer":0,
			"byteLength":320232,
			"byteOffset":8287544,
			"target":34963
		},
		{
			"buffer":0,
			"byteLength":157032,
			"byteOffset":8607776,
			"target":34962
		},
		{
			"buffer":0,
			"byteLength":157032,
			"byteOffset":8764808,
			"target":34962
		},
		{
			"buffer":0,
			"byteLength":104688,
			"byteOffset":8921840,
			"target":34962
		},
		{
			"buffer":0,
			"byteLength":26172,
			"byteOffset":9026528,
			"target":34963
		},
		{
			"buffer":0,
			"byteLength":2052,
			"byteOffset":9052700,
			"target":34962
		},
		{
			"buffer":0,
			"byteLength":2052,
			"byteOffset":9054752,
			"target":34962
		},
		{
			"buffer":0,
			"byteLength":1368,
			"byteOffset":9056804,
			"target":34962
		},
		{
			"buffer":0,
			"byteLength":684,
			"byteOffset":9058172,
			"target":34962
		},
		{
			"buffer":0,
			"byteLength":1368,
			"byteOffset":9058856,
			"target":34962
		},
		{
			"buffer":0,
			"byteLength":342,
			"byteOffset":9060224,
			"target":34963
		},
		{
			"buffer":0,
			"byteLength":1077912,
			"byteOffset":9060568,
			"target":34962
		},
		{
			"buffer":0,
			"byteLength":1077912,
			"byteOffset":10138480,
			"target":34962
		},
		{
			"buffer":0,
			"byteLength":718608,
			"byteOffset":11216392,
			"target":34962
		},
		{
			"buffer":0,
			"byteLength":1077912,
			"byteOffset":11935000,
			"target":34962
		},
		{
			"buffer":0,
			"byteLength":359304,
			"byteOffset":13012912,
			"target":34963
		},
		{
			"buffer":0,
			"byteLength":177768,
			"byteOffset":13372216,
			"target":34962
		},
		{
			"buffer":0,
			"byteLength":177768,
			"byteOffset":13549984,
			"target":34962
		},
		{
			"buffer":0,
			"byteLength":118512,
			"byteOffset":13727752,
			"target":34962
		},
		{
			"buffer":0,
			"byteLength":29628,
			"byteOffset":13846264,
			"target":34963
		},
		{
			"buffer":0,
			"byteLength":1152,
			"byteOffset":13875892,
			"target":34962
		},
		{
			"buffer":0,
			"byteLength":1152,
			"byteOffset":13877044,
			"target":34962
		},
		{
			"buffer":0,
			"byteLength":768,
			"byteOffset":13878196,
			"target":34962
		},
		{
			"buffer":0,
			"byteLength":384,
			"byteOffset":13878964,
			"target":34962
		},
		{
			"buffer":0,
			"byteLength":768,
			"byteOffset":13879348,
			"target":34962
		},
		{
			"buffer":0,
			"byteLength":192,
			"byteOffset":13880116,
			"target":34963
		},
		{
			"buffer":0,
			"byteLength":3024,
			"byteOffset":13880308,
			"target":34962
		},
		{
			"buffer":0,
			"byteLength":3024,
			"byteOffset":13883332,
			"target":34962
		},
		{
			"buffer":0,
			"byteLength":2016,
			"byteOffset":13886356,
			"target":34962
		},
		{
			"buffer":0,
			"byteLength":1008,
			"byteOffset":13888372,
			"target":34962
		},
		{
			"buffer":0,
			"byteLength":2016,
			"byteOffset":13889380,
			"target":34962
		},
		{
			"buffer":0,
			"byteLength":504,
			"byteOffset":13891396,
			"target":34963
		},
		{
			"buffer":0,
			"byteLength":1065024,
			"byteOffset":13891900,
			"target":34962
		},
		{
			"buffer":0,
			"byteLength":1065024,
			"byteOffset":14956924,
			"target":34962
		},
		{
			"buffer":0,
			"byteLength":710016,
			"byteOffset":16021948,
			"target":34962
		},
		{
			"buffer":0,
			"byteLength":1065024,
			"byteOffset":16731964,
			"target":34962
		},
		{
			"buffer":0,
			"byteLength":355008,
			"byteOffset":17796988,
			"target":34963
		},
		{
			"buffer":0,
			"byteLength":173016,
			"byteOffset":18151996,
			"target":34962
		},
		{
			"buffer":0,
			"byteLength":173016,
			"byteOffset":18325012,
			"target":34962
		},
		{
			"buffer":0,
			"byteLength":115344,
			"byteOffset":18498028,
			"target":34962
		},
		{
			"buffer":0,
			"byteLength":28836,
			"byteOffset":18613372,
			"target":34963
		},
		{
			"buffer":0,
			"byteLength":108,
			"byteOffset":18642208,
			"target":34962
		},
		{
			"buffer":0,
			"byteLength":108,
			"byteOffset":18642316,
			"target":34962
		},
		{
			"buffer":0,
			"byteLength":72,
			"byteOffset":18642424,
			"target":34962
		},
		{
			"buffer":0,
			"byteLength":36,
			"byteOffset":18642496,
			"target":34962
		},
		{
			"buffer":0,
			"byteLength":72,
			"byteOffset":18642532,
			"target":34962
		},
		{
			"buffer":0,
			"byteLength":18,
			"byteOffset":18642604,
			"target":34963
		},
		{
			"buffer":0,
			"byteLength":360,
			"byteOffset":18642624,
			"target":34962
		},
		{
			"buffer":0,
			"byteLength":360,
			"byteOffset":18642984,
			"target":34962
		},
		{
			"buffer":0,
			"byteLength":240,
			"byteOffset":18643344,
			"target":34962
		},
		{
			"buffer":0,
			"byteLength":360,
			"byteOffset":18643584,
			"target":34962
		},
		{
			"buffer":0,
			"byteLength":60,
			"byteOffset":18643944,
			"target":34963
		}
	],
	"samplers":[
		{
			"magFilter":9729,
			"minFilter":9987
		}
	],
	"buffers":[
		{
			"byteLength":18644004,
			"uri":"RCTP.bin"
		}
	]
}
