{
	"asset":{
		"generator":"Khronos glTF Blender I/O v4.5.49",
		"version":"2.0"
	},
	"scene":0,
	"scenes":[
		{
			"name":"Scene",
			"nodes":[
				3
			]
		}
	],
	"nodes":[
		{
			"mesh":0,
			"name":"Mesh_129",
			"scale":[
				1,
				1.25,
				1
			]
		},
		{
			"mesh":1,
			"name":"Mesh_130"
		},
		{
			"mesh":2,
			"name":"Mesh_131"
		},
		{
			"children":[
				0,
				1,
				2
			],
			"name":"Building Terminal 2"
		}
	],
	"materials":[
		{
			"doubleSided":true,
			"name":"Material",
			"pbrMetallicRoughness":{
				"baseColorFactor":[
					0.800000011920929,
					0.800000011920929,
					0.800000011920929,
					1
				],
				"metallicFactor":0,
				"roughnessFactor":0.5
			}
		},
		{
			"name":"TextureAtlas 23b09083",
			"pbrMetallicRoughness":{
				"baseColorTexture":{
					"index":0
				}
			}
		},
		{
			"name":"STEEL",
			"normalTexture":{
				"index":1
			},
			"occlusionTexture":{
				"index":2
			},
			"pbrMetallicRoughness":{
				"baseColorTexture":{
					"index":3
				},
				"metallicRoughnessTexture":{
					"index":2
				}
			}
		}
	],
	"meshes":[
		{
			"name":"Mesh_129",
			"primitives":[
				{
					"attributes":{
						"POSITION":0,
						"NORMAL":1,
						"TEXCOORD_0":2,
						"COLOR_0":3,
						"COLOR_1":4
					},
					"indices":5,
					"material":0
				}
			]
		},
		{
			"name":"Mesh_130",
			"primitives":[
				{
					"attributes":{
						"POSITION":6,
						"NORMAL":7,
						"TEXCOORD_0":8
					},
					"indices":9,
					"material":1
				}
			]
		},
		{
			"name":"Mesh_131",
			"primitives":[
				{
					"attributes":{
						"POSITION":10,
						"NORMAL":11,
						"TEXCOORD_0":12,
						"COLOR_0":13,
						"COLOR_1":14
					},
					"indices":15,
					"material":2
				}
			]
		}
	],
	"textures":[
		{
			"sampler":0,
			"source":0
		},
		{
			"sampler":1,
			"source":1
		},
		{
			"sampler":1,
			"source":2
		},
		{
			"sampler":1,
			"source":3
		}
	],
	"images":[
		{
			"mimeType":"image/png",
			"name":"Image_4",
			"uri":"Image_4.png"
		},
		{
			"mimeType":"image/jpeg",
			"name":"Image_7",
			"uri":"Image_7.jpg"
		},
		{
			"mimeType":"image/jpeg",
			"name":"Image_6",
			"uri":"Image_6.jpg"
		},
		{
			"mimeType":"image/jpeg",
			"name":"Image_5",
			"uri":"Image_5.jpg"
		}
	],
	"accessors":[
		{
			"bufferView":0,
			"componentType":5126,
			"count":1020,
			"max":[
				164.94000244140625,
				54,
				357.5060119628906
			],
			"min":[
				-171.32899475097656,
				0,
				-274.2850036621094
			],
			"type":"VEC3"
		},
		{
			"bufferView":1,
			"componentType":5126,
			"count":1020,
			"type":"VEC3"
		},
		{
			"bufferView":2,
			"componentType":5126,
			"count":1020,
			"type":"VEC2"
		},
		{
			"bufferView":3,
			"componentType":5121,
			"count":1020,
			"normalized":true,
			"type":"VEC4"
		},
		{
			"bufferView":4,
			"componentType":5123,
			"count":1020,
			"normalized":true,
			"type":"VEC4"
		},
		{
			"bufferView":5,
			"componentType":5123,
			"count":1020,
			"type":"SCALAR"
		},
		{
			"bufferView":6,
			"componentType":5126,
			"count":6,
			"max":[
				-118.72364807128906,
				2,
				128.89234924316406
			],
			"min":[
				-119.04513549804688,
				0,
				127.94544219970703
			],
			"type":"VEC3"
		},
		{
			"bufferView":7,
			"componentType":5126,
			"count":6,
			"type":"VEC3"
		},
		{
			"bufferView":8,
			"componentType":5126,
			"count":6,
			"type":"VEC2"
		},
		{
			"bufferView":9,
			"componentType":5123,
			"count":6,
			"type":"SCALAR"
		},
		{
			"bufferView":10,
			"componentType":5126,
			"count":1227,
			"max":[
				164.94000244140625,
				54,
				357.5060119628906
			],
			"min":[
				-171.32899475097656,
				7.5,
				-274.2850036621094
			],
			"type":"VEC3"
		},
		{
			"bufferView":11,
			"componentType":5126,
			"count":1227,
			"type":"VEC3"
		},
		{
			"bufferView":12,
			"componentType":5126,
			"count":1227,
			"type":"VEC2"
		},
		{
			"bufferView":13,
			"componentType":5121,
			"count":1227,
			"normalized":true,
			"type":"VEC4"
		},
		{
			"bufferView":14,
			"componentType":5123,
			"count":1227,
			"normalized":true,
			"type":"VEC4"
		},
		{
			"bufferView":15,
			"componentType":5123,
			"count":1227,
			"type":"SCALAR"
		}
	],
	"bufferViews":[
		{
			"buffer":0,
			"byteLength":12240,
			"byteOffset":0,
			"target":34962
		},
		{
			"buffer":0,
			"byteLength":12240,
			"byteOffset":12240,
			"target":34962
		},
		{
			"buffer":0,
			"byteLength":8160,
			"byteOffset":24480,
			"target":34962
		},
		{
			"buffer":0,
			"byteLength":4080,
			"byteOffset":32640,
			"target":34962
		},
		{
			"buffer":0,
			"byteLength":8160,
			"byteOffset":36720,
			"target":34962
		},
		{
			"buffer":0,
			"byteLength":2040,
			"byteOffset":44880,
			"target":34963
		},
		{
			"buffer":0,
			"byteLength":72,
			"byteOffset":46920,
			"target":34962
		},
		{
			"buffer":0,
			"byteLength":72,
			"byteOffset":46992,
			"target":34962
		},
		{
			"buffer":0,
			"byteLength":48,
			"byteOffset":47064,
			"target":34962
		},
		{
			"buffer":0,
			"byteLength":12,
			"byteOffset":47112,
			"target":34963
		},
		{
			"buffer":0,
			"byteLength":14724,
			"byteOffset":47124,
			"target":34962
		},
		{
			"buffer":0,
			"byteLength":14724,
			"byteOffset":61848,
			"target":34962
		},
		{
			"buffer":0,
			"byteLength":9816,
			"byteOffset":76572,
			"target":34962
		},
		{
			"buffer":0,
			"byteLength":4908,
			"byteOffset":86388,
			"target":34962
		},
		{
			"buffer":0,
			"byteLength":9816,
			"byteOffset":91296,
			"target":34962
		},
		{
			"buffer":0,
			"byteLength":2454,
			"byteOffset":101112,
			"target":34963
		}
	],
	"samplers":[
		{
			"magFilter":9729,
			"minFilter":9987,
			"wrapS":33071,
			"wrapT":33071
		},
		{
			"magFilter":9729,
			"minFilter":9987
		}
	],
	"buffers":[
		{
			"byteLength":103568,
			"uri":"KDCA.bin"
		}
	]
}
