{
	"asset":{
		"generator":"Khronos glTF Blender I/O v4.5.49",
		"version":"2.0"
	},
	"scene":0,
	"scenes":[
		{
			"name":"Scene",
			"nodes":[
				2,
				5
			]
		}
	],
	"nodes":[
		{
			"mesh":0,
			"name":"Mesh_551"
		},
		{
			"mesh":1,
			"name":"Mesh_552"
		},
		{
			"children":[
				0,
				1
			],
			"name":"Building Concourse B",
			"scale":[
				1,
				1.5,
				1
			],
			"translation":[
				41.699913024902344,
				0,
				-287.8500061035156
			]
		},
		{
			"mesh":2,
			"name":"Mesh_571"
		},
		{
			"mesh":3,
			"name":"Mesh_572"
		},
		{
			"children":[
				3,
				4
			],
			"name":"Building Concourse A",
			"scale":[
				1,
				1.5,
				1
			],
			"translation":[
				41.699913024902344,
				0,
				-287.8500061035156
			]
		}
	],
	"materials":[
		{
			"name":"ASPHALT",
			"normalTexture":{
				"index":0
			},
			"occlusionTexture":{
				"index":1
			},
			"pbrMetallicRoughness":{
				"baseColorTexture":{
					"index":2
				},
				"metallicRoughnessTexture":{
					"index":1
		    },
		    "baseColorFactor": [
		      1.0,
		      1.0,
		      1.0,
		      1.0
		    ],
		    "roughnessFactor": 0.8
		  },
		  "emissiveFactor": [
		    0.01,
		    0.009,
		    0.006
		  ]
		},
		{
			"name":"SOLAR_PANEL",
			"normalTexture":{
				"index":3
			},
			"occlusionTexture":{
				"index":4
			},
			"pbrMetallicRoughness":{
				"baseColorTexture":{
					"index":5
				},
				"metallicRoughnessTexture":{
					"index":4
		    },
		    "baseColorFactor": [
		      1.0,
		      1.0,
		      1.0,
		      1.0
		    ],
		    "roughnessFactor": 0.8
		  },
		  "emissiveFactor": [
		    0.01,
		    0.009,
		    0.006
		  ]
		}
	],
	"meshes":[
		{
			"name":"Mesh_551",
			"primitives":[
				{
					"attributes":{
						"POSITION":0,
						"NORMAL":1,
						"TEXCOORD_0":2,
						"COLOR_0":3,
						"COLOR_1":4
					},
					"indices":5,
					"material":0
				}
			]
		},
		{
			"name":"Mesh_552",
			"primitives":[
				{
					"attributes":{
						"POSITION":6,
						"NORMAL":7,
						"TEXCOORD_0":8,
						"COLOR_0":9,
						"COLOR_1":10
					},
					"indices":11,
					"material":1
				}
			]
		},
		{
			"name":"Mesh_571",
			"primitives":[
				{
					"attributes":{
						"POSITION":12,
						"NORMAL":13,
						"TEXCOORD_0":14,
						"COLOR_0":15,
						"COLOR_1":16
					},
					"indices":17,
					"material":0
				}
			]
		},
		{
			"name":"Mesh_572",
			"primitives":[
				{
					"attributes":{
						"POSITION":18,
						"NORMAL":19,
						"TEXCOORD_0":20,
						"COLOR_0":21,
						"COLOR_1":22
					},
					"indices":23,
					"material":1
				}
			]
		}
	],
	"textures":[
		{
			"sampler":0,
			"source":0
		},
		{
			"sampler":0,
			"source":1
		},
		{
			"sampler":0,
			"source":2
		},
		{
			"sampler":0,
			"source":3
		},
		{
			"sampler":0,
			"source":4
		},
		{
			"sampler":0,
			"source":5
		}
	],
	"images":[
		{
			"mimeType":"image/jpeg",
			"name":"Image_2",
			"uri":"https://cdn.jsdelivr.net/gh/greenairways/test@latest/Image_2.jpg"
		},
		{
			"mimeType":"image/jpeg",
			"name":"Image_1",
			"uri":"https://cdn.jsdelivr.net/gh/greenairways/test@latest/Image_1.jpg"
		},
		{
			"mimeType":"image/png",
			"name":"Image_0",
			"uri":"https://cdn.jsdelivr.net/gh/greenairways/test@latest/Image_0.png"
		},
		{
			"mimeType":"image/jpeg",
			"name":"Image_18",
			"uri":"https://cdn.jsdelivr.net/gh/greenairways/test@latest/Image_18.jpg"
		},
		{
			"mimeType":"image/jpeg",
			"name":"Image_17",
			"uri":"https://cdn.jsdelivr.net/gh/greenairways/test@latest/Image_17.jpg"
		},
		{
			"mimeType":"image/jpeg",
			"name":"https://cdn.jsdelivr.net/gh/greenairways/test@latest/Image_16",
			"uri":"Image_16.jpg"
		}
	],
	"accessors":[
		{
			"bufferView":0,
			"componentType":5126,
			"count":792,
			"max":[
				677.6680297851562,
				7.5,
				-91.96199798583984
			],
			"min":[
				-640.530029296875,
				7.5,
				-297.6629943847656
			],
			"type":"VEC3"
		},
		{
			"bufferView":1,
			"componentType":5126,
			"count":792,
			"type":"VEC3"
		},
		{
			"bufferView":2,
			"componentType":5126,
			"count":792,
			"type":"VEC2"
		},
		{
			"bufferView":3,
			"componentType":5121,
			"count":792,
			"normalized":true,
			"type":"VEC4"
		},
		{
			"bufferView":4,
			"componentType":5123,
			"count":792,
			"normalized":true,
			"type":"VEC4"
		},
		{
			"bufferView":5,
			"componentType":5123,
			"count":792,
			"type":"SCALAR"
		},
		{
			"bufferView":6,
			"componentType":5126,
			"count":1695,
			"max":[
				677.6680297851562,
				7.5,
				-91.96199798583984
			],
			"min":[
				-640.530029296875,
				-0.009999999776482582,
				-297.6629943847656
			],
			"type":"VEC3"
		},
		{
			"bufferView":7,
			"componentType":5126,
			"count":1695,
			"type":"VEC3"
		},
		{
			"bufferView":8,
			"componentType":5126,
			"count":1695,
			"type":"VEC2"
		},
		{
			"bufferView":9,
			"componentType":5121,
			"count":1695,
			"normalized":true,
			"type":"VEC4"
		},
		{
			"bufferView":10,
			"componentType":5123,
			"count":1695,
			"normalized":true,
			"type":"VEC4"
		},
		{
			"bufferView":11,
			"componentType":5123,
			"count":1695,
			"type":"SCALAR"
		},
		{
			"bufferView":12,
			"componentType":5126,
			"count":894,
			"max":[
				555.6820068359375,
				7.5,
				426.65301513671875
			],
			"min":[
				-663.9190063476562,
				7.5,
				282.6789855957031
			],
			"type":"VEC3"
		},
		{
			"bufferView":13,
			"componentType":5126,
			"count":894,
			"type":"VEC3"
		},
		{
			"bufferView":14,
			"componentType":5126,
			"count":894,
			"type":"VEC2"
		},
		{
			"bufferView":15,
			"componentType":5121,
			"count":894,
			"normalized":true,
			"type":"VEC4"
		},
		{
			"bufferView":16,
			"componentType":5123,
			"count":894,
			"normalized":true,
			"type":"VEC4"
		},
		{
			"bufferView":17,
			"componentType":5123,
			"count":894,
			"type":"SCALAR"
		},
		{
			"bufferView":18,
			"componentType":5126,
			"count":1986,
			"max":[
				555.6820068359375,
				7.5,
				426.65301513671875
			],
			"min":[
				-663.9190063476562,
				-0.009999999776482582,
				282.6789855957031
			],
			"type":"VEC3"
		},
		{
			"bufferView":19,
			"componentType":5126,
			"count":1986,
			"type":"VEC3"
		},
		{
			"bufferView":20,
			"componentType":5126,
			"count":1986,
			"type":"VEC2"
		},
		{
			"bufferView":21,
			"componentType":5121,
			"count":1986,
			"normalized":true,
			"type":"VEC4"
		},
		{
			"bufferView":22,
			"componentType":5123,
			"count":1986,
			"normalized":true,
			"type":"VEC4"
		},
		{
			"bufferView":23,
			"componentType":5123,
			"count":1986,
			"type":"SCALAR"
		}
	],
	"bufferViews":[
		{
			"buffer":0,
			"byteLength":9504,
			"byteOffset":0,
			"target":34962
		},
		{
			"buffer":0,
			"byteLength":9504,
			"byteOffset":9504,
			"target":34962
		},
		{
			"buffer":0,
			"byteLength":6336,
			"byteOffset":19008,
			"target":34962
		},
		{
			"buffer":0,
			"byteLength":3168,
			"byteOffset":25344,
			"target":34962
		},
		{
			"buffer":0,
			"byteLength":6336,
			"byteOffset":28512,
			"target":34962
		},
		{
			"buffer":0,
			"byteLength":1584,
			"byteOffset":34848,
			"target":34963
		},
		{
			"buffer":0,
			"byteLength":20340,
			"byteOffset":36432,
			"target":34962
		},
		{
			"buffer":0,
			"byteLength":20340,
			"byteOffset":56772,
			"target":34962
		},
		{
			"buffer":0,
			"byteLength":13560,
			"byteOffset":77112,
			"target":34962
		},
		{
			"buffer":0,
			"byteLength":6780,
			"byteOffset":90672,
			"target":34962
		},
		{
			"buffer":0,
			"byteLength":13560,
			"byteOffset":97452,
			"target":34962
		},
		{
			"buffer":0,
			"byteLength":3390,
			"byteOffset":111012,
			"target":34963
		},
		{
			"buffer":0,
			"byteLength":10728,
			"byteOffset":114404,
			"target":34962
		},
		{
			"buffer":0,
			"byteLength":10728,
			"byteOffset":125132,
			"target":34962
		},
		{
			"buffer":0,
			"byteLength":7152,
			"byteOffset":135860,
			"target":34962
		},
		{
			"buffer":0,
			"byteLength":3576,
			"byteOffset":143012,
			"target":34962
		},
		{
			"buffer":0,
			"byteLength":7152,
			"byteOffset":146588,
			"target":34962
		},
		{
			"buffer":0,
			"byteLength":1788,
			"byteOffset":153740,
			"target":34963
		},
		{
			"buffer":0,
			"byteLength":23832,
			"byteOffset":155528,
			"target":34962
		},
		{
			"buffer":0,
			"byteLength":23832,
			"byteOffset":179360,
			"target":34962
		},
		{
			"buffer":0,
			"byteLength":15888,
			"byteOffset":203192,
			"target":34962
		},
		{
			"buffer":0,
			"byteLength":7944,
			"byteOffset":219080,
			"target":34962
		},
		{
			"buffer":0,
			"byteLength":15888,
			"byteOffset":227024,
			"target":34962
		},
		{
			"buffer":0,
			"byteLength":3972,
			"byteOffset":242912,
			"target":34963
		}
	],
	"samplers":[
		{
			"magFilter":9729,
			"minFilter":9987
		}
	],
	"buffers":[
		{
			"byteLength":246884,
			"uri":"KDEN.bin"
		}
	]
}
