{
	"asset":{
		"generator":"Khronos glTF Blender I/O v5.0.21",
		"version":"2.0"
	},
	"scene":0,
	"scenes":[
		{
			"name":"Scene",
			"nodes":[
				0,
				1
			]
		}
	],
	"nodes":[
		{
			"mesh":0,
			"name":"Mesh_32",
			"scale":[
				1,
				2,
				1
			]
		},
		{
			"mesh":1,
			"name":"Mesh_33",
			"scale":[
				1,
				2,
				1
			]
		}
	],
	"materials":[
		{
			"name":"BRICK",
			"normalTexture":{
				"index":0
			},
			"occlusionTexture":{
				"index":1
			},
			"pbrMetallicRoughness":{
				"baseColorTexture":{
					"index":2
				},
				"metallicRoughnessTexture":{
					"index":1
				}
			}
		}
	],
	"meshes":[
		{
			"name":"Mesh_32",
			"primitives":[
				{
					"attributes":{
						"POSITION":0,
						"NORMAL":1,
						"TEXCOORD_0":2,
						"COLOR_0":3,
						"COLOR_1":4
					},
					"indices":5,
					"material":0
				}
			]
		},
		{
			"name":"Mesh_33",
			"primitives":[
				{
					"attributes":{
						"POSITION":6,
						"NORMAL":7,
						"TEXCOORD_0":8,
						"COLOR_0":9,
						"COLOR_1":10
					},
					"indices":11,
					"material":0
				}
			]
		}
	],
	"textures":[
		{
			"sampler":0,
			"source":0
		},
		{
			"sampler":0,
			"source":1
		},
		{
			"sampler":0,
			"source":2
		}
	],
	"images":[
		{
			"mimeType":"image/jpeg",
			"name":"Image_24",
			"uri":"Image_24.jpg"
		},
		{
			"mimeType":"image/jpeg",
			"name":"Image_23",
			"uri":"Image_23.jpg"
		},
		{
			"mimeType":"image/jpeg",
			"name":"Image_22",
			"uri":"Image_22.jpg"
		}
	],
	"accessors":[
		{
			"bufferView":0,
			"componentType":5126,
			"count":471,
			"max":[
				224.81700134277344,
				7.5,
				141.69700622558594
			],
			"min":[
				-226.093994140625,
				7.5,
				-187.4969940185547
			],
			"type":"VEC3"
		},
		{
			"bufferView":1,
			"componentType":5126,
			"count":471,
			"type":"VEC3"
		},
		{
			"bufferView":2,
			"componentType":5126,
			"count":471,
			"type":"VEC2"
		},
		{
			"bufferView":3,
			"componentType":5121,
			"count":471,
			"normalized":true,
			"type":"VEC4"
		},
		{
			"bufferView":4,
			"componentType":5123,
			"count":471,
			"normalized":true,
			"type":"VEC4"
		},
		{
			"bufferView":5,
			"componentType":5123,
			"count":471,
			"type":"SCALAR"
		},
		{
			"bufferView":6,
			"componentType":5126,
			"count":1146,
			"max":[
				224.81700134277344,
				7.5,
				141.69700622558594
			],
			"min":[
				-226.093994140625,
				0,
				-187.4969940185547
			],
			"type":"VEC3"
		},
		{
			"bufferView":7,
			"componentType":5126,
			"count":1146,
			"type":"VEC3"
		},
		{
			"bufferView":8,
			"componentType":5126,
			"count":1146,
			"type":"VEC2"
		},
		{
			"bufferView":9,
			"componentType":5121,
			"count":1146,
			"normalized":true,
			"type":"VEC4"
		},
		{
			"bufferView":10,
			"componentType":5123,
			"count":1146,
			"normalized":true,
			"type":"VEC4"
		},
		{
			"bufferView":11,
			"componentType":5123,
			"count":1146,
			"type":"SCALAR"
		}
	],
	"bufferViews":[
		{
			"buffer":0,
			"byteLength":5652,
			"byteOffset":0,
			"target":34962
		},
		{
			"buffer":0,
			"byteLength":5652,
			"byteOffset":5652,
			"target":34962
		},
		{
			"buffer":0,
			"byteLength":3768,
			"byteOffset":11304,
			"target":34962
		},
		{
			"buffer":0,
			"byteLength":1884,
			"byteOffset":15072,
			"target":34962
		},
		{
			"buffer":0,
			"byteLength":3768,
			"byteOffset":16956,
			"target":34962
		},
		{
			"buffer":0,
			"byteLength":942,
			"byteOffset":20724,
			"target":34963
		},
		{
			"buffer":0,
			"byteLength":13752,
			"byteOffset":21668,
			"target":34962
		},
		{
			"buffer":0,
			"byteLength":13752,
			"byteOffset":35420,
			"target":34962
		},
		{
			"buffer":0,
			"byteLength":9168,
			"byteOffset":49172,
			"target":34962
		},
		{
			"buffer":0,
			"byteLength":4584,
			"byteOffset":58340,
			"target":34962
		},
		{
			"buffer":0,
			"byteLength":9168,
			"byteOffset":62924,
			"target":34962
		},
		{
			"buffer":0,
			"byteLength":2292,
			"byteOffset":72092,
			"target":34963
		}
	],
	"samplers":[
		{
			"magFilter":9729,
			"minFilter":9987
		}
	],
	"buffers":[
		{
			"byteLength":74384,
			"uri":"KLAS.bin"
		}
	]
}
