{
	"asset":{
		"generator":"Khronos glTF Blender I/O v5.0.21",
		"version":"2.0"
	},
	"extensionsUsed":[
		"KHR_materials_specular",
		"KHR_materials_ior"
	],
	"scene":0,
	"scenes":[
		{
			"name":"Scene",
			"nodes":[
				0,
				1
			]
		}
	],
	"nodes":[
		{
			"mesh":0,
			"name":"Building Nh ga N?i ??a T1",
			"rotation":[
				0.7071068286895752,
				0,
				0,
				0.7071068286895752
			]
		},
		{
			"mesh":1,
			"name":"Building Nh ga Qu?c t? T2",
			"rotation":[
				0.7071068286895752,
				0,
				0,
				0.7071068286895752
			],
			"scale":[
				1,
				1,
				3
			]
		}
	],
	"materials":[
		{
			"doubleSided":true,
			"extensions":{
				"KHR_materials_specular":{
					"specularFactor":0
				},
				"KHR_materials_ior":{
					"ior":1
				}
			},
			"name":"GLASS_0",
			"pbrMetallicRoughness":{
				"baseColorTexture":{
					"index":0
				},
				"metallicFactor":0,
				"roughnessFactor":0.696426510810852
			}
		},
		{
			"doubleSided":true,
			"extensions":{
				"KHR_materials_specular":{
					"specularFactor":0
				},
				"KHR_materials_ior":{
					"ior":1
				}
			},
			"name":"PLASTIC_0",
			"pbrMetallicRoughness":{
				"baseColorTexture":{
					"index":1
				},
				"metallicFactor":0,
				"roughnessFactor":0.696426510810852
			}
		},
		{
			"doubleSided":true,
			"extensions":{
				"KHR_materials_specular":{
					"specularFactor":0
				},
				"KHR_materials_ior":{
					"ior":1
				}
			},
			"name":"TERRAIN_DEFAULT_0",
			"pbrMetallicRoughness":{
				"baseColorTexture":{
					"index":2
				},
				"metallicFactor":0,
				"roughnessFactor":0.696426510810852
			}
		},
		{
			"doubleSided":true,
			"extensions":{
				"KHR_materials_specular":{
					"specularFactor":0
				},
				"KHR_materials_ior":{
					"ior":1
				}
			},
			"name":"ASPHALT_0",
			"pbrMetallicRoughness":{
				"baseColorTexture":{
					"index":3
				},
				"metallicFactor":0,
				"roughnessFactor":0.696426510810852
			}
		},
		{
			"doubleSided":true,
			"extensions":{
				"KHR_materials_specular":{
					"specularFactor":0
				},
				"KHR_materials_ior":{
					"ior":1
				}
			},
			"name":"ROOF_DEFAULT_0",
			"pbrMetallicRoughness":{
				"baseColorTexture":{
					"index":4
				},
				"metallicFactor":0,
				"roughnessFactor":0.696426510810852
			}
		}
	],
	"meshes":[
		{
			"name":"Building Nh ga N?i ??a T1",
			"primitives":[
				{
					"attributes":{
						"POSITION":0,
						"NORMAL":1,
						"TEXCOORD_0":2
					},
					"indices":3,
					"material":0
				},
				{
					"attributes":{
						"POSITION":4,
						"NORMAL":5,
						"TEXCOORD_0":6
					},
					"indices":7,
					"material":1
				},
				{
					"attributes":{
						"POSITION":8,
						"NORMAL":9,
						"TEXCOORD_0":10
					},
					"indices":11,
					"material":2
				},
				{
					"attributes":{
						"POSITION":12,
						"NORMAL":13,
						"TEXCOORD_0":14
					},
					"indices":15,
					"material":3
				}
			]
		},
		{
			"name":"Building Nh ga Qu?c t? T2",
			"primitives":[
				{
					"attributes":{
						"POSITION":16,
						"NORMAL":17,
						"TEXCOORD_0":18
					},
					"indices":19,
					"material":0
				},
				{
					"attributes":{
						"POSITION":20,
						"NORMAL":21,
						"TEXCOORD_0":22
					},
					"indices":23,
					"material":0
				},
				{
					"attributes":{
						"POSITION":24,
						"NORMAL":25,
						"TEXCOORD_0":26
					},
					"indices":27,
					"material":4
				},
				{
					"attributes":{
						"POSITION":28,
						"NORMAL":29,
						"TEXCOORD_0":30
					},
					"indices":31,
					"material":4
				}
			]
		}
	],
	"textures":[
		{
			"sampler":0,
			"source":0
		},
		{
			"sampler":0,
			"source":1
		},
		{
			"sampler":0,
			"source":2
		},
		{
			"sampler":0,
			"source":3
		},
		{
			"sampler":0,
			"source":4
		}
	],
	"images":[
		{
			"mimeType":"image/jpeg",
			"name":"Glass_Color",
			"uri":"Glass_Color.jpg"
		},
		{
			"mimeType":"image/jpeg",
			"name":"Plastic010_Color",
			"uri":"Plastic010_Color.jpg"
		},
		{
			"mimeType":"image/jpeg",
			"name":"Ground003_Color",
			"uri":"Ground003_Color.jpg"
		},
		{
			"mimeType":"image/png",
			"name":"Asphalt010_Color",
			"uri":"Asphalt010_Color.png"
		},
		{
			"mimeType":"image/jpeg",
			"name":"RoofingTiles010_Color",
			"uri":"RoofingTiles010_Color.jpg"
		}
	],
	"accessors":[
		{
			"bufferView":0,
			"componentType":5126,
			"count":9404,
			"max":[
				628.2010498046875,
				349.8849792480469,
				-2.0239458084106445
			],
			"min":[
				161.0986785888672,
				60.76747131347656,
				-18.64272117614746
			],
			"type":"VEC3"
		},
		{
			"bufferView":1,
			"componentType":5126,
			"count":9404,
			"type":"VEC3"
		},
		{
			"bufferView":2,
			"componentType":5126,
			"count":9404,
			"type":"VEC2"
		},
		{
			"bufferView":3,
			"componentType":5123,
			"count":13176,
			"type":"SCALAR"
		},
		{
			"bufferView":4,
			"componentType":5126,
			"count":87951,
			"max":[
				628.2512817382812,
				349.93511962890625,
				-2
			],
			"min":[
				161.0487518310547,
				60.71754455566406,
				-18.66666603088379
			],
			"type":"VEC3"
		},
		{
			"bufferView":5,
			"componentType":5126,
			"count":87951,
			"type":"VEC3"
		},
		{
			"bufferView":6,
			"componentType":5126,
			"count":87951,
			"type":"VEC2"
		},
		{
			"bufferView":7,
			"componentType":5125,
			"count":105408,
			"type":"SCALAR"
		},
		{
			"bufferView":8,
			"componentType":5126,
			"count":58198,
			"max":[
				628.322021484375,
				350.1180114746094,
				0
			],
			"min":[
				160.86000061035156,
				60.52399826049805,
				-20
			],
			"type":"VEC3"
		},
		{
			"bufferView":9,
			"componentType":5126,
			"count":58198,
			"type":"VEC3"
		},
		{
			"bufferView":10,
			"componentType":5126,
			"count":58198,
			"type":"VEC2"
		},
		{
			"bufferView":11,
			"componentType":5123,
			"count":80406,
			"type":"SCALAR"
		},
		{
			"bufferView":12,
			"componentType":5126,
			"count":48,
			"max":[
				628.322021484375,
				350.1180114746094,
				-20
			],
			"min":[
				160.86000061035156,
				60.52399826049805,
				-20
			],
			"type":"VEC3"
		},
		{
			"bufferView":13,
			"componentType":5126,
			"count":48,
			"type":"VEC3"
		},
		{
			"bufferView":14,
			"componentType":5126,
			"count":48,
			"type":"VEC2"
		},
		{
			"bufferView":15,
			"componentType":5123,
			"count":138,
			"type":"SCALAR"
		},
		{
			"bufferView":16,
			"componentType":5126,
			"count":21400,
			"max":[
				-171.42108154296875,
				-42.48784637451172,
				-0.7695217728614807
			],
			"min":[
				-1129.6868896484375,
				-389.9866943359375,
				-9.480478286743164
			],
			"type":"VEC3"
		},
		{
			"bufferView":17,
			"componentType":5126,
			"count":21400,
			"type":"VEC3"
		},
		{
			"bufferView":18,
			"componentType":5126,
			"count":21400,
			"type":"VEC2"
		},
		{
			"bufferView":19,
			"componentType":5123,
			"count":29304,
			"type":"SCALAR"
		},
		{
			"bufferView":20,
			"componentType":5126,
			"count":197330,
			"max":[
				-171.3686981201172,
				-42.43546676635742,
				-0.7500000596046448
			],
			"min":[
				-1129.7392578125,
				-390.0390625,
				-9.5
			],
			"type":"VEC3"
		},
		{
			"bufferView":21,
			"componentType":5126,
			"count":197330,
			"type":"VEC3"
		},
		{
			"bufferView":22,
			"componentType":5126,
			"count":197330,
			"type":"VEC2"
		},
		{
			"bufferView":23,
			"componentType":5125,
			"count":234432,
			"type":"SCALAR"
		},
		{
			"bufferView":24,
			"componentType":5126,
			"count":134634,
			"max":[
				-171.17599487304688,
				-42.23500061035156,
				0
			],
			"min":[
				-1129.93505859375,
				-390.2349853515625,
				-10
			],
			"type":"VEC3"
		},
		{
			"bufferView":25,
			"componentType":5126,
			"count":134634,
			"type":"VEC3"
		},
		{
			"bufferView":26,
			"componentType":5126,
			"count":134634,
			"type":"VEC2"
		},
		{
			"bufferView":27,
			"componentType":5125,
			"count":177282,
			"type":"SCALAR"
		},
		{
			"bufferView":28,
			"componentType":5126,
			"count":52,
			"max":[
				-171.17599487304688,
				-42.23500061035156,
				-10
			],
			"min":[
				-1129.93505859375,
				-390.2349853515625,
				-10
			],
			"type":"VEC3"
		},
		{
			"bufferView":29,
			"componentType":5126,
			"count":52,
			"type":"VEC3"
		},
		{
			"bufferView":30,
			"componentType":5126,
			"count":52,
			"type":"VEC2"
		},
		{
			"bufferView":31,
			"componentType":5123,
			"count":111,
			"type":"SCALAR"
		}
	],
	"bufferViews":[
		{
			"buffer":0,
			"byteLength":112848,
			"byteOffset":0,
			"target":34962
		},
		{
			"buffer":0,
			"byteLength":112848,
			"byteOffset":112848,
			"target":34962
		},
		{
			"buffer":0,
			"byteLength":75232,
			"byteOffset":225696,
			"target":34962
		},
		{
			"buffer":0,
			"byteLength":26352,
			"byteOffset":300928,
			"target":34963
		},
		{
			"buffer":0,
			"byteLength":1055412,
			"byteOffset":327280,
			"target":34962
		},
		{
			"buffer":0,
			"byteLength":1055412,
			"byteOffset":1382692,
			"target":34962
		},
		{
			"buffer":0,
			"byteLength":703608,
			"byteOffset":2438104,
			"target":34962
		},
		{
			"buffer":0,
			"byteLength":421632,
			"byteOffset":3141712,
			"target":34963
		},
		{
			"buffer":0,
			"byteLength":698376,
			"byteOffset":3563344,
			"target":34962
		},
		{
			"buffer":0,
			"byteLength":698376,
			"byteOffset":4261720,
			"target":34962
		},
		{
			"buffer":0,
			"byteLength":465584,
			"byteOffset":4960096,
			"target":34962
		},
		{
			"buffer":0,
			"byteLength":160812,
			"byteOffset":5425680,
			"target":34963
		},
		{
			"buffer":0,
			"byteLength":576,
			"byteOffset":5586492,
			"target":34962
		},
		{
			"buffer":0,
			"byteLength":576,
			"byteOffset":5587068,
			"target":34962
		},
		{
			"buffer":0,
			"byteLength":384,
			"byteOffset":5587644,
			"target":34962
		},
		{
			"buffer":0,
			"byteLength":276,
			"byteOffset":5588028,
			"target":34963
		},
		{
			"buffer":0,
			"byteLength":256800,
			"byteOffset":5588304,
			"target":34962
		},
		{
			"buffer":0,
			"byteLength":256800,
			"byteOffset":5845104,
			"target":34962
		},
		{
			"buffer":0,
			"byteLength":171200,
			"byteOffset":6101904,
			"target":34962
		},
		{
			"buffer":0,
			"byteLength":58608,
			"byteOffset":6273104,
			"target":34963
		},
		{
			"buffer":0,
			"byteLength":2367960,
			"byteOffset":6331712,
			"target":34962
		},
		{
			"buffer":0,
			"byteLength":2367960,
			"byteOffset":8699672,
			"target":34962
		},
		{
			"buffer":0,
			"byteLength":1578640,
			"byteOffset":11067632,
			"target":34962
		},
		{
			"buffer":0,
			"byteLength":937728,
			"byteOffset":12646272,
			"target":34963
		},
		{
			"buffer":0,
			"byteLength":1615608,
			"byteOffset":13584000,
			"target":34962
		},
		{
			"buffer":0,
			"byteLength":1615608,
			"byteOffset":15199608,
			"target":34962
		},
		{
			"buffer":0,
			"byteLength":1077072,
			"byteOffset":16815216,
			"target":34962
		},
		{
			"buffer":0,
			"byteLength":709128,
			"byteOffset":17892288,
			"target":34963
		},
		{
			"buffer":0,
			"byteLength":624,
			"byteOffset":18601416,
			"target":34962
		},
		{
			"buffer":0,
			"byteLength":624,
			"byteOffset":18602040,
			"target":34962
		},
		{
			"buffer":0,
			"byteLength":416,
			"byteOffset":18602664,
			"target":34962
		},
		{
			"buffer":0,
			"byteLength":222,
			"byteOffset":18603080,
			"target":34963
		}
	],
	"samplers":[
		{
			"magFilter":9729,
			"minFilter":9987
		}
	],
	"buffers":[
		{
			"byteLength":18603304,
			"uri":"VVNB.bin"
		}
	]
}
