{
	"asset":{
		"generator":"Khronos glTF Blender I/O v5.0.21",
		"version":"2.0"
	},
	"scene":0,
	"scenes":[
		{
			"name":"Scene",
			"nodes":[
				2,
				5,
				8
			]
		}
	],
	"nodes":[
		{
			"mesh":0,
			"name":"Mesh_5"
		},
		{
			"mesh":1,
			"name":"Mesh_6"
		},
		{
			"children":[
				0,
				1
			],
			"name":"Building Concourse G",
			"scale":[
				1,
				2.25,
				1
			]
		},
		{
			"mesh":2,
			"name":"Mesh_1108"
		},
		{
			"mesh":3,
			"name":"Mesh_1110"
		},
		{
			"children":[
				3,
				4
			],
			"name":"Building Concourse J",
			"scale":[
				1,
				2.25,
				1
			]
		},
		{
			"mesh":4,
			"name":"Mesh_1299"
		},
		{
			"mesh":5,
			"name":"Mesh_1301"
		},
		{
			"children":[
				6,
				7
			],
			"name":"Building Concourse E",
			"scale":[
				1,
				2.25,
				1
			]
		}
	],
	"materials":[
		{
			"name":"PAVING_STONE",
			"normalTexture":{
				"index":0
			},
			"occlusionTexture":{
				"index":1
			},
			"pbrMetallicRoughness":{
				"baseColorTexture":{
					"index":2
				},
				"metallicRoughnessTexture":{
					"index":1
				}
			}
		}
	],
	"meshes":[
		{
			"name":"Mesh_5",
			"primitives":[
				{
					"attributes":{
						"POSITION":0,
						"NORMAL":1,
						"TEXCOORD_0":2,
						"COLOR_0":3,
						"COLOR_1":4
					},
					"indices":5,
					"material":0
				}
			]
		},
		{
			"name":"Mesh_6",
			"primitives":[
				{
					"attributes":{
						"POSITION":6,
						"NORMAL":7,
						"TEXCOORD_0":8,
						"COLOR_0":9,
						"COLOR_1":10
					},
					"indices":11,
					"material":0
				}
			]
		},
		{
			"name":"Mesh_1108",
			"primitives":[
				{
					"attributes":{
						"POSITION":12,
						"NORMAL":13,
						"TEXCOORD_0":14,
						"COLOR_0":15,
						"COLOR_1":16
					},
					"indices":17,
					"material":0
				}
			]
		},
		{
			"name":"Mesh_1110",
			"primitives":[
				{
					"attributes":{
						"POSITION":18,
						"NORMAL":19,
						"TEXCOORD_0":20,
						"COLOR_0":21,
						"COLOR_1":22
					},
					"indices":23,
					"material":0
				}
			]
		},
		{
			"name":"Mesh_1299",
			"primitives":[
				{
					"attributes":{
						"POSITION":24,
						"NORMAL":25,
						"TEXCOORD_0":26,
						"COLOR_0":27,
						"COLOR_1":28
					},
					"indices":29,
					"material":0
				}
			]
		},
		{
			"name":"Mesh_1301",
			"primitives":[
				{
					"attributes":{
						"POSITION":30,
						"NORMAL":31,
						"TEXCOORD_0":32,
						"COLOR_0":33,
						"COLOR_1":34
					},
					"indices":35,
					"material":0
				}
			]
		}
	],
	"textures":[
		{
			"sampler":0,
			"source":0
		},
		{
			"sampler":0,
			"source":1
		},
		{
			"sampler":0,
			"source":2
		}
	],
	"images":[
		{
			"mimeType":"image/jpeg",
			"name":"Image_2",
			"uri":"Image_2.jpg"
		},
		{
			"mimeType":"image/jpeg",
			"name":"Image_1",
			"uri":"Image_1.jpg"
		},
		{
			"mimeType":"image/jpeg",
			"name":"Image_0",
			"uri":"Image_0.jpg"
		}
	],
	"accessors":[
		{
			"bufferView":0,
			"componentType":5126,
			"count":294,
			"max":[
				34.167999267578125,
				7.5,
				290.1960144042969
			],
			"min":[
				-181.4340057373047,
				7.5,
				-66.46900177001953
			],
			"type":"VEC3"
		},
		{
			"bufferView":1,
			"componentType":5126,
			"count":294,
			"type":"VEC3"
		},
		{
			"bufferView":2,
			"componentType":5126,
			"count":294,
			"type":"VEC2"
		},
		{
			"bufferView":3,
			"componentType":5121,
			"count":294,
			"normalized":true,
			"type":"VEC4"
		},
		{
			"bufferView":4,
			"componentType":5123,
			"count":294,
			"normalized":true,
			"type":"VEC4"
		},
		{
			"bufferView":5,
			"componentType":5123,
			"count":294,
			"type":"SCALAR"
		},
		{
			"bufferView":6,
			"componentType":5126,
			"count":876,
			"max":[
				34.167999267578125,
				7.5,
				290.1960144042969
			],
			"min":[
				-181.4340057373047,
				0,
				-66.46900177001953
			],
			"type":"VEC3"
		},
		{
			"bufferView":7,
			"componentType":5126,
			"count":876,
			"type":"VEC3"
		},
		{
			"bufferView":8,
			"componentType":5126,
			"count":876,
			"type":"VEC2"
		},
		{
			"bufferView":9,
			"componentType":5121,
			"count":876,
			"normalized":true,
			"type":"VEC4"
		},
		{
			"bufferView":10,
			"componentType":5123,
			"count":876,
			"normalized":true,
			"type":"VEC4"
		},
		{
			"bufferView":11,
			"componentType":5123,
			"count":876,
			"type":"SCALAR"
		},
		{
			"bufferView":12,
			"componentType":5126,
			"count":1974,
			"max":[
				444.9049987792969,
				7.5,
				327.375
			],
			"min":[
				184.00999450683594,
				0,
				-36.07899856567383
			],
			"type":"VEC3"
		},
		{
			"bufferView":13,
			"componentType":5126,
			"count":1974,
			"type":"VEC3"
		},
		{
			"bufferView":14,
			"componentType":5126,
			"count":1974,
			"type":"VEC2"
		},
		{
			"bufferView":15,
			"componentType":5121,
			"count":1974,
			"normalized":true,
			"type":"VEC4"
		},
		{
			"bufferView":16,
			"componentType":5123,
			"count":1974,
			"normalized":true,
			"type":"VEC4"
		},
		{
			"bufferView":17,
			"componentType":5123,
			"count":1974,
			"type":"SCALAR"
		},
		{
			"bufferView":18,
			"componentType":5126,
			"count":531,
			"max":[
				444.9049987792969,
				7.5,
				327.375
			],
			"min":[
				184.00999450683594,
				7.5,
				-36.07899856567383
			],
			"type":"VEC3"
		},
		{
			"bufferView":19,
			"componentType":5126,
			"count":531,
			"type":"VEC3"
		},
		{
			"bufferView":20,
			"componentType":5126,
			"count":531,
			"type":"VEC2"
		},
		{
			"bufferView":21,
			"componentType":5121,
			"count":531,
			"normalized":true,
			"type":"VEC4"
		},
		{
			"bufferView":22,
			"componentType":5123,
			"count":531,
			"normalized":true,
			"type":"VEC4"
		},
		{
			"bufferView":23,
			"componentType":5123,
			"count":531,
			"type":"SCALAR"
		},
		{
			"bufferView":24,
			"componentType":5126,
			"count":960,
			"max":[
				-85.00399780273438,
				7.5,
				-91.36000061035156
			],
			"min":[
				-404.1820068359375,
				0,
				-318.4110107421875
			],
			"type":"VEC3"
		},
		{
			"bufferView":25,
			"componentType":5126,
			"count":960,
			"type":"VEC3"
		},
		{
			"bufferView":26,
			"componentType":5126,
			"count":960,
			"type":"VEC2"
		},
		{
			"bufferView":27,
			"componentType":5121,
			"count":960,
			"normalized":true,
			"type":"VEC4"
		},
		{
			"bufferView":28,
			"componentType":5123,
			"count":960,
			"normalized":true,
			"type":"VEC4"
		},
		{
			"bufferView":29,
			"componentType":5123,
			"count":960,
			"type":"SCALAR"
		},
		{
			"bufferView":30,
			"componentType":5126,
			"count":324,
			"max":[
				-85.00399780273438,
				7.5,
				-91.36000061035156
			],
			"min":[
				-404.1820068359375,
				7.5,
				-318.4110107421875
			],
			"type":"VEC3"
		},
		{
			"bufferView":31,
			"componentType":5126,
			"count":324,
			"type":"VEC3"
		},
		{
			"bufferView":32,
			"componentType":5126,
			"count":324,
			"type":"VEC2"
		},
		{
			"bufferView":33,
			"componentType":5121,
			"count":324,
			"normalized":true,
			"type":"VEC4"
		},
		{
			"bufferView":34,
			"componentType":5123,
			"count":324,
			"normalized":true,
			"type":"VEC4"
		},
		{
			"bufferView":35,
			"componentType":5123,
			"count":324,
			"type":"SCALAR"
		}
	],
	"bufferViews":[
		{
			"buffer":0,
			"byteLength":3528,
			"byteOffset":0,
			"target":34962
		},
		{
			"buffer":0,
			"byteLength":3528,
			"byteOffset":3528,
			"target":34962
		},
		{
			"buffer":0,
			"byteLength":2352,
			"byteOffset":7056,
			"target":34962
		},
		{
			"buffer":0,
			"byteLength":1176,
			"byteOffset":9408,
			"target":34962
		},
		{
			"buffer":0,
			"byteLength":2352,
			"byteOffset":10584,
			"target":34962
		},
		{
			"buffer":0,
			"byteLength":588,
			"byteOffset":12936,
			"target":34963
		},
		{
			"buffer":0,
			"byteLength":10512,
			"byteOffset":13524,
			"target":34962
		},
		{
			"buffer":0,
			"byteLength":10512,
			"byteOffset":24036,
			"target":34962
		},
		{
			"buffer":0,
			"byteLength":7008,
			"byteOffset":34548,
			"target":34962
		},
		{
			"buffer":0,
			"byteLength":3504,
			"byteOffset":41556,
			"target":34962
		},
		{
			"buffer":0,
			"byteLength":7008,
			"byteOffset":45060,
			"target":34962
		},
		{
			"buffer":0,
			"byteLength":1752,
			"byteOffset":52068,
			"target":34963
		},
		{
			"buffer":0,
			"byteLength":23688,
			"byteOffset":53820,
			"target":34962
		},
		{
			"buffer":0,
			"byteLength":23688,
			"byteOffset":77508,
			"target":34962
		},
		{
			"buffer":0,
			"byteLength":15792,
			"byteOffset":101196,
			"target":34962
		},
		{
			"buffer":0,
			"byteLength":7896,
			"byteOffset":116988,
			"target":34962
		},
		{
			"buffer":0,
			"byteLength":15792,
			"byteOffset":124884,
			"target":34962
		},
		{
			"buffer":0,
			"byteLength":3948,
			"byteOffset":140676,
			"target":34963
		},
		{
			"buffer":0,
			"byteLength":6372,
			"byteOffset":144624,
			"target":34962
		},
		{
			"buffer":0,
			"byteLength":6372,
			"byteOffset":150996,
			"target":34962
		},
		{
			"buffer":0,
			"byteLength":4248,
			"byteOffset":157368,
			"target":34962
		},
		{
			"buffer":0,
			"byteLength":2124,
			"byteOffset":161616,
			"target":34962
		},
		{
			"buffer":0,
			"byteLength":4248,
			"byteOffset":163740,
			"target":34962
		},
		{
			"buffer":0,
			"byteLength":1062,
			"byteOffset":167988,
			"target":34963
		},
		{
			"buffer":0,
			"byteLength":11520,
			"byteOffset":169052,
			"target":34962
		},
		{
			"buffer":0,
			"byteLength":11520,
			"byteOffset":180572,
			"target":34962
		},
		{
			"buffer":0,
			"byteLength":7680,
			"byteOffset":192092,
			"target":34962
		},
		{
			"buffer":0,
			"byteLength":3840,
			"byteOffset":199772,
			"target":34962
		},
		{
			"buffer":0,
			"byteLength":7680,
			"byteOffset":203612,
			"target":34962
		},
		{
			"buffer":0,
			"byteLength":1920,
			"byteOffset":211292,
			"target":34963
		},
		{
			"buffer":0,
			"byteLength":3888,
			"byteOffset":213212,
			"target":34962
		},
		{
			"buffer":0,
			"byteLength":3888,
			"byteOffset":217100,
			"target":34962
		},
		{
			"buffer":0,
			"byteLength":2592,
			"byteOffset":220988,
			"target":34962
		},
		{
			"buffer":0,
			"byteLength":1296,
			"byteOffset":223580,
			"target":34962
		},
		{
			"buffer":0,
			"byteLength":2592,
			"byteOffset":224876,
			"target":34962
		},
		{
			"buffer":0,
			"byteLength":648,
			"byteOffset":227468,
			"target":34963
		}
	],
	"samplers":[
		{
			"magFilter":9729,
			"minFilter":9987
		}
	],
	"buffers":[
		{
			"byteLength":228116,
			"uri":"KMIA.bin"
		}
	]
}
