{
	"asset":{
		"generator":"Khronos glTF Blender I/O v5.0.21",
		"version":"2.0"
	},
	"scene":0,
	"scenes":[
		{
			"name":"Scene",
			"nodes":[
				2
			]
		}
	],
	"nodes":[
		{
			"mesh":0,
			"name":"Mesh_97"
		},
		{
			"mesh":1,
			"name":"Mesh_98"
		},
		{
			"children":[
				0,
				1
			],
			"name":"Building Indira Gandhi International Airport Terminal 1",
			"scale":[
				1,
				2,
				1
			]
		}
	],
	"materials":[
		{
			"name":"ASPHALT",
			"normalTexture":{
				"index":0
			},
			"occlusionTexture":{
				"index":1
			},
			"pbrMetallicRoughness":{
				"baseColorTexture":{
					"index":2
				},
				"metallicRoughnessTexture":{
					"index":1
				}
			}
		},
		{
			"name":"STEEL",
			"normalTexture":{
				"index":3
			},
			"occlusionTexture":{
				"index":4
			},
			"pbrMetallicRoughness":{
				"baseColorTexture":{
					"index":5
				},
				"metallicRoughnessTexture":{
					"index":4
				}
			}
		}
	],
	"meshes":[
		{
			"name":"Mesh_97",
			"primitives":[
				{
					"attributes":{
						"POSITION":0,
						"NORMAL":1,
						"TEXCOORD_0":2,
						"COLOR_0":3,
						"COLOR_1":4
					},
					"indices":5,
					"material":0
				}
			]
		},
		{
			"name":"Mesh_98",
			"primitives":[
				{
					"attributes":{
						"POSITION":6,
						"NORMAL":7,
						"TEXCOORD_0":8,
						"COLOR_0":9,
						"COLOR_1":10
					},
					"indices":11,
					"material":1
				}
			]
		}
	],
	"textures":[
		{
			"sampler":0,
			"source":0
		},
		{
			"sampler":0,
			"source":1
		},
		{
			"sampler":0,
			"source":2
		},
		{
			"sampler":0,
			"source":3
		},
		{
			"sampler":0,
			"source":4
		},
		{
			"sampler":0,
			"source":5
		}
	],
	"images":[
		{
			"mimeType":"image/jpeg",
			"name":"Image_5",
			"uri":"Image_5.jpg"
		},
		{
			"mimeType":"image/jpeg",
			"name":"Image_4",
			"uri":"Image_4.jpg"
		},
		{
			"mimeType":"image/png",
			"name":"Image_3",
			"uri":"Image_3.png"
		},
		{
			"mimeType":"image/jpeg",
			"name":"Image_12",
			"uri":"Image_12.jpg"
		},
		{
			"mimeType":"image/jpeg",
			"name":"Image_11",
			"uri":"Image_11.jpg"
		},
		{
			"mimeType":"image/jpeg",
			"name":"Image_10",
			"uri":"Image_10.jpg"
		}
	],
	"accessors":[
		{
			"bufferView":0,
			"componentType":5126,
			"count":162,
			"max":[
				355.1600036621094,
				7.5,
				233.77999877929688
			],
			"min":[
				-348.6579895019531,
				7.5,
				-231.97000122070312
			],
			"type":"VEC3"
		},
		{
			"bufferView":1,
			"componentType":5126,
			"count":162,
			"type":"VEC3"
		},
		{
			"bufferView":2,
			"componentType":5126,
			"count":162,
			"type":"VEC2"
		},
		{
			"bufferView":3,
			"componentType":5121,
			"count":162,
			"normalized":true,
			"type":"VEC4"
		},
		{
			"bufferView":4,
			"componentType":5123,
			"count":162,
			"normalized":true,
			"type":"VEC4"
		},
		{
			"bufferView":5,
			"componentType":5123,
			"count":162,
			"type":"SCALAR"
		},
		{
			"bufferView":6,
			"componentType":5126,
			"count":336,
			"max":[
				355.1600036621094,
				7.5,
				233.77999877929688
			],
			"min":[
				-348.6579895019531,
				0,
				-231.97000122070312
			],
			"type":"VEC3"
		},
		{
			"bufferView":7,
			"componentType":5126,
			"count":336,
			"type":"VEC3"
		},
		{
			"bufferView":8,
			"componentType":5126,
			"count":336,
			"type":"VEC2"
		},
		{
			"bufferView":9,
			"componentType":5121,
			"count":336,
			"normalized":true,
			"type":"VEC4"
		},
		{
			"bufferView":10,
			"componentType":5123,
			"count":336,
			"normalized":true,
			"type":"VEC4"
		},
		{
			"bufferView":11,
			"componentType":5123,
			"count":336,
			"type":"SCALAR"
		}
	],
	"bufferViews":[
		{
			"buffer":0,
			"byteLength":1944,
			"byteOffset":0,
			"target":34962
		},
		{
			"buffer":0,
			"byteLength":1944,
			"byteOffset":1944,
			"target":34962
		},
		{
			"buffer":0,
			"byteLength":1296,
			"byteOffset":3888,
			"target":34962
		},
		{
			"buffer":0,
			"byteLength":648,
			"byteOffset":5184,
			"target":34962
		},
		{
			"buffer":0,
			"byteLength":1296,
			"byteOffset":5832,
			"target":34962
		},
		{
			"buffer":0,
			"byteLength":324,
			"byteOffset":7128,
			"target":34963
		},
		{
			"buffer":0,
			"byteLength":4032,
			"byteOffset":7452,
			"target":34962
		},
		{
			"buffer":0,
			"byteLength":4032,
			"byteOffset":11484,
			"target":34962
		},
		{
			"buffer":0,
			"byteLength":2688,
			"byteOffset":15516,
			"target":34962
		},
		{
			"buffer":0,
			"byteLength":1344,
			"byteOffset":18204,
			"target":34962
		},
		{
			"buffer":0,
			"byteLength":2688,
			"byteOffset":19548,
			"target":34962
		},
		{
			"buffer":0,
			"byteLength":672,
			"byteOffset":22236,
			"target":34963
		}
	],
	"samplers":[
		{
			"magFilter":9729,
			"minFilter":9987
		}
	],
	"buffers":[
		{
			"byteLength":22908,
			"uri":"VIDP.bin"
		}
	]
}
