{
	"asset":{
		"generator":"Khronos glTF Blender I/O v5.0.21",
		"version":"2.0"
	},
	"scene":0,
	"scenes":[
		{
			"name":"Scene",
			"nodes":[
				2
			]
		}
	],
	"nodes":[
		{
			"mesh":0,
			"name":"Mesh_66"
		},
		{
			"mesh":1,
			"name":"Mesh_67"
		},
		{
			"children":[
				0,
				1
			],
			"name":"Building w1228723629",
			"scale":[
				1,
				1.25,
				1
			]
		}
	],
	"materials":[
		{
			"name":"ASPHALT",
			"normalTexture":{
				"index":0
			},
			"occlusionTexture":{
				"index":1
			},
			"pbrMetallicRoughness":{
				"baseColorTexture":{
					"index":2
				},
				"metallicRoughnessTexture":{
					"index":1
				}
			}
		},
		{
			"doubleSided":true,
			"name":"Material",
			"pbrMetallicRoughness":{
				"baseColorFactor":[
					0.800000011920929,
					0.800000011920929,
					0.800000011920929,
					1
				],
				"metallicFactor":0,
				"roughnessFactor":0.5
			}
		}
	],
	"meshes":[
		{
			"name":"Mesh_66",
			"primitives":[
				{
					"attributes":{
						"POSITION":0,
						"NORMAL":1,
						"TEXCOORD_0":2,
						"COLOR_0":3,
						"COLOR_1":4
					},
					"indices":5,
					"material":0
				}
			]
		},
		{
			"name":"Mesh_67",
			"primitives":[
				{
					"attributes":{
						"POSITION":6,
						"NORMAL":7,
						"TEXCOORD_0":8,
						"COLOR_0":9,
						"COLOR_1":10
					},
					"indices":11,
					"material":1
				}
			]
		}
	],
	"textures":[
		{
			"sampler":0,
			"source":0
		},
		{
			"sampler":0,
			"source":1
		},
		{
			"sampler":0,
			"source":2
		}
	],
	"images":[
		{
			"mimeType":"image/jpeg",
			"name":"Image_6",
			"uri":"Image_6.jpg"
		},
		{
			"mimeType":"image/jpeg",
			"name":"Image_5",
			"uri":"Image_5.jpg"
		},
		{
			"mimeType":"image/png",
			"name":"Image_4",
			"uri":"Image_4.png"
		}
	],
	"accessors":[
		{
			"bufferView":0,
			"componentType":5126,
			"count":33,
			"max":[
				99.76100158691406,
				7.5,
				91.03700256347656
			],
			"min":[
				-97.41400146484375,
				7.5,
				-96.58100128173828
			],
			"type":"VEC3"
		},
		{
			"bufferView":1,
			"componentType":5126,
			"count":33,
			"type":"VEC3"
		},
		{
			"bufferView":2,
			"componentType":5126,
			"count":33,
			"type":"VEC2"
		},
		{
			"bufferView":3,
			"componentType":5121,
			"count":33,
			"normalized":true,
			"type":"VEC4"
		},
		{
			"bufferView":4,
			"componentType":5123,
			"count":33,
			"normalized":true,
			"type":"VEC4"
		},
		{
			"bufferView":5,
			"componentType":5123,
			"count":33,
			"type":"SCALAR"
		},
		{
			"bufferView":6,
			"componentType":5126,
			"count":78,
			"max":[
				99.76100158691406,
				7.5,
				91.03700256347656
			],
			"min":[
				-97.41400146484375,
				0,
				-96.58100128173828
			],
			"type":"VEC3"
		},
		{
			"bufferView":7,
			"componentType":5126,
			"count":78,
			"type":"VEC3"
		},
		{
			"bufferView":8,
			"componentType":5126,
			"count":78,
			"type":"VEC2"
		},
		{
			"bufferView":9,
			"componentType":5121,
			"count":78,
			"normalized":true,
			"type":"VEC4"
		},
		{
			"bufferView":10,
			"componentType":5123,
			"count":78,
			"normalized":true,
			"type":"VEC4"
		},
		{
			"bufferView":11,
			"componentType":5123,
			"count":78,
			"type":"SCALAR"
		}
	],
	"bufferViews":[
		{
			"buffer":0,
			"byteLength":396,
			"byteOffset":0,
			"target":34962
		},
		{
			"buffer":0,
			"byteLength":396,
			"byteOffset":396,
			"target":34962
		},
		{
			"buffer":0,
			"byteLength":264,
			"byteOffset":792,
			"target":34962
		},
		{
			"buffer":0,
			"byteLength":132,
			"byteOffset":1056,
			"target":34962
		},
		{
			"buffer":0,
			"byteLength":264,
			"byteOffset":1188,
			"target":34962
		},
		{
			"buffer":0,
			"byteLength":66,
			"byteOffset":1452,
			"target":34963
		},
		{
			"buffer":0,
			"byteLength":936,
			"byteOffset":1520,
			"target":34962
		},
		{
			"buffer":0,
			"byteLength":936,
			"byteOffset":2456,
			"target":34962
		},
		{
			"buffer":0,
			"byteLength":624,
			"byteOffset":3392,
			"target":34962
		},
		{
			"buffer":0,
			"byteLength":312,
			"byteOffset":4016,
			"target":34962
		},
		{
			"buffer":0,
			"byteLength":624,
			"byteOffset":4328,
			"target":34962
		},
		{
			"buffer":0,
			"byteLength":156,
			"byteOffset":4952,
			"target":34963
		}
	],
	"samplers":[
		{
			"magFilter":9729,
			"minFilter":9987
		}
	],
	"buffers":[
		{
			"byteLength":5108,
			"uri":"KBNA.bin"
		}
	]
}
