{
	"asset":{
		"generator":"Khronos glTF Blender I/O v5.0.21",
		"version":"2.0"
	},
	"scene":0,
	"scenes":[
		{
			"name":"Scene",
			"nodes":[
				2,
				5
			]
		}
	],
	"nodes":[
		{
			"mesh":0,
			"name":"Mesh_228"
		},
		{
			"mesh":1,
			"name":"Mesh_229"
		},
		{
			"children":[
				0,
				1
			],
			"name":"Building Midfield Satellite Concourse",
			"scale":[
				1,
				2.25,
				1
			]
		},
		{
			"mesh":2,
			"name":"Mesh_232"
		},
		{
			"mesh":3,
			"name":"Mesh_233"
		},
		{
			"children":[
				3,
				4
			],
			"name":"Building w1343236011",
			"scale":[
				1,
				2.25,
				1
			]
		}
	],
	"materials":[
		{
			"name":"ASPHALT",
			"normalTexture":{
				"index":0
			},
			"occlusionTexture":{
				"index":1
			},
			"pbrMetallicRoughness":{
				"baseColorTexture":{
					"index":2
				},
				"metallicRoughnessTexture":{
					"index":1
				}
			}
		}
	],
	"meshes":[
		{
			"name":"Mesh_228",
			"primitives":[
				{
					"attributes":{
						"POSITION":0,
						"NORMAL":1,
						"TEXCOORD_0":2,
						"COLOR_0":3,
						"COLOR_1":4
					},
					"indices":5,
					"material":0
				}
			]
		},
		{
			"name":"Mesh_229",
			"primitives":[
				{
					"attributes":{
						"POSITION":6,
						"NORMAL":7,
						"TEXCOORD_0":8,
						"COLOR_0":9,
						"COLOR_1":10
					},
					"indices":11,
					"material":0
				}
			]
		},
		{
			"name":"Mesh_232",
			"primitives":[
				{
					"attributes":{
						"POSITION":12,
						"NORMAL":13,
						"TEXCOORD_0":14,
						"COLOR_0":15,
						"COLOR_1":16
					},
					"indices":17,
					"material":0
				}
			]
		},
		{
			"name":"Mesh_233",
			"primitives":[
				{
					"attributes":{
						"POSITION":18,
						"NORMAL":19,
						"TEXCOORD_0":20,
						"COLOR_0":21,
						"COLOR_1":22
					},
					"indices":23,
					"material":0
				}
			]
		}
	],
	"textures":[
		{
			"sampler":0,
			"source":0
		},
		{
			"sampler":0,
			"source":1
		},
		{
			"sampler":0,
			"source":2
		}
	],
	"images":[
		{
			"mimeType":"image/jpeg",
			"name":"Image_2",
			"uri":"Image_2.jpg"
		},
		{
			"mimeType":"image/jpeg",
			"name":"Image_1",
			"uri":"Image_1.jpg"
		},
		{
			"mimeType":"image/png",
			"name":"Image_0",
			"uri":"Image_0.png"
		}
	],
	"accessors":[
		{
			"bufferView":0,
			"componentType":5126,
			"count":438,
			"max":[
				59.62099838256836,
				7.5,
				264.4800109863281
			],
			"min":[
				-57.70000076293945,
				7.5,
				-243.63699340820312
			],
			"type":"VEC3"
		},
		{
			"bufferView":1,
			"componentType":5126,
			"count":438,
			"type":"VEC3"
		},
		{
			"bufferView":2,
			"componentType":5126,
			"count":438,
			"type":"VEC2"
		},
		{
			"bufferView":3,
			"componentType":5121,
			"count":438,
			"normalized":true,
			"type":"VEC4"
		},
		{
			"bufferView":4,
			"componentType":5123,
			"count":438,
			"normalized":true,
			"type":"VEC4"
		},
		{
			"bufferView":5,
			"componentType":5123,
			"count":438,
			"type":"SCALAR"
		},
		{
			"bufferView":6,
			"componentType":5126,
			"count":738,
			"max":[
				59.62099838256836,
				7.5,
				264.4800109863281
			],
			"min":[
				-57.70000076293945,
				0,
				-243.63699340820312
			],
			"type":"VEC3"
		},
		{
			"bufferView":7,
			"componentType":5126,
			"count":738,
			"type":"VEC3"
		},
		{
			"bufferView":8,
			"componentType":5126,
			"count":738,
			"type":"VEC2"
		},
		{
			"bufferView":9,
			"componentType":5121,
			"count":738,
			"normalized":true,
			"type":"VEC4"
		},
		{
			"bufferView":10,
			"componentType":5123,
			"count":738,
			"normalized":true,
			"type":"VEC4"
		},
		{
			"bufferView":11,
			"componentType":5123,
			"count":738,
			"type":"SCALAR"
		},
		{
			"bufferView":12,
			"componentType":5126,
			"count":60,
			"max":[
				107.71600341796875,
				7.5,
				542.4000244140625
			],
			"min":[
				12.965999603271484,
				0,
				261.2080078125
			],
			"type":"VEC3"
		},
		{
			"bufferView":13,
			"componentType":5126,
			"count":60,
			"type":"VEC3"
		},
		{
			"bufferView":14,
			"componentType":5126,
			"count":60,
			"type":"VEC2"
		},
		{
			"bufferView":15,
			"componentType":5121,
			"count":60,
			"normalized":true,
			"type":"VEC4"
		},
		{
			"bufferView":16,
			"componentType":5123,
			"count":60,
			"normalized":true,
			"type":"VEC4"
		},
		{
			"bufferView":17,
			"componentType":5123,
			"count":60,
			"type":"SCALAR"
		},
		{
			"bufferView":18,
			"componentType":5126,
			"count":24,
			"max":[
				107.71600341796875,
				7.5,
				542.4000244140625
			],
			"min":[
				12.965999603271484,
				7.5,
				261.2080078125
			],
			"type":"VEC3"
		},
		{
			"bufferView":19,
			"componentType":5126,
			"count":24,
			"type":"VEC3"
		},
		{
			"bufferView":20,
			"componentType":5126,
			"count":24,
			"type":"VEC2"
		},
		{
			"bufferView":21,
			"componentType":5121,
			"count":24,
			"normalized":true,
			"type":"VEC4"
		},
		{
			"bufferView":22,
			"componentType":5123,
			"count":24,
			"normalized":true,
			"type":"VEC4"
		},
		{
			"bufferView":23,
			"componentType":5123,
			"count":24,
			"type":"SCALAR"
		}
	],
	"bufferViews":[
		{
			"buffer":0,
			"byteLength":5256,
			"byteOffset":0,
			"target":34962
		},
		{
			"buffer":0,
			"byteLength":5256,
			"byteOffset":5256,
			"target":34962
		},
		{
			"buffer":0,
			"byteLength":3504,
			"byteOffset":10512,
			"target":34962
		},
		{
			"buffer":0,
			"byteLength":1752,
			"byteOffset":14016,
			"target":34962
		},
		{
			"buffer":0,
			"byteLength":3504,
			"byteOffset":15768,
			"target":34962
		},
		{
			"buffer":0,
			"byteLength":876,
			"byteOffset":19272,
			"target":34963
		},
		{
			"buffer":0,
			"byteLength":8856,
			"byteOffset":20148,
			"target":34962
		},
		{
			"buffer":0,
			"byteLength":8856,
			"byteOffset":29004,
			"target":34962
		},
		{
			"buffer":0,
			"byteLength":5904,
			"byteOffset":37860,
			"target":34962
		},
		{
			"buffer":0,
			"byteLength":2952,
			"byteOffset":43764,
			"target":34962
		},
		{
			"buffer":0,
			"byteLength":5904,
			"byteOffset":46716,
			"target":34962
		},
		{
			"buffer":0,
			"byteLength":1476,
			"byteOffset":52620,
			"target":34963
		},
		{
			"buffer":0,
			"byteLength":720,
			"byteOffset":54096,
			"target":34962
		},
		{
			"buffer":0,
			"byteLength":720,
			"byteOffset":54816,
			"target":34962
		},
		{
			"buffer":0,
			"byteLength":480,
			"byteOffset":55536,
			"target":34962
		},
		{
			"buffer":0,
			"byteLength":240,
			"byteOffset":56016,
			"target":34962
		},
		{
			"buffer":0,
			"byteLength":480,
			"byteOffset":56256,
			"target":34962
		},
		{
			"buffer":0,
			"byteLength":120,
			"byteOffset":56736,
			"target":34963
		},
		{
			"buffer":0,
			"byteLength":288,
			"byteOffset":56856,
			"target":34962
		},
		{
			"buffer":0,
			"byteLength":288,
			"byteOffset":57144,
			"target":34962
		},
		{
			"buffer":0,
			"byteLength":192,
			"byteOffset":57432,
			"target":34962
		},
		{
			"buffer":0,
			"byteLength":96,
			"byteOffset":57624,
			"target":34962
		},
		{
			"buffer":0,
			"byteLength":192,
			"byteOffset":57720,
			"target":34962
		},
		{
			"buffer":0,
			"byteLength":48,
			"byteOffset":57912,
			"target":34963
		}
	],
	"samplers":[
		{
			"magFilter":9729,
			"minFilter":9987
		}
	],
	"buffers":[
		{
			"byteLength":57960,
			"uri":"KLAX.bin"
		}
	]
}
